<svg width="138" height="25" viewBox="0 0 138 25" fill="none" xmlns="http://www.w3.org/2000/svg">
<path d="M2.84339 19.7298C1.81469 19.732 0.864355 19.1806 0.355872 18.2863C-0.145281 17.3976 -0.115229 16.3048 0.434014 15.445L5.55666 7.4007C6.09044 6.52052 7.0565 5.99561 8.08542 6.0267C9.11359 6.05134 10.0488 6.62781 10.5328 7.53527C11.0103 8.43825 10.9506 9.52464 10.3787 10.3723L5.25928 18.4165C4.73165 19.2387 3.82031 19.7341 2.84339 19.7298Z" fill="#F62B54"/>
<path d="M11.6302 19.7294C10.597 19.7294 9.64627 19.177 9.14703 18.2892C8.64699 17.4029 8.67705 16.3129 9.22517 15.4555L14.338 7.42964C14.8641 6.53683 15.8331 5.9996 16.869 6.02634C17.9109 6.04914 18.8551 6.63195 19.3326 7.5436C19.8069 8.45526 19.7374 9.54816 19.1481 10.3936L14.0363 18.4194C13.5104 19.2381 12.6032 19.732 11.6302 19.7294Z" fill="#FFCC00"/>
<path d="M20.2203 19.7977C21.6768 19.7977 22.8576 18.6417 22.8576 17.2157C22.8576 15.7898 21.6768 14.6338 20.2203 14.6338C18.7638 14.6338 17.583 15.7898 17.583 17.2157C17.583 18.6417 18.7638 19.7977 20.2203 19.7977Z" fill="#00CA72"/>
<path d="M134.791 14.7823C135.588 14.7823 136.064 15.3489 136.064 16.2768V19.4568H137.146V16.2041C137.146 14.6261 136.403 13.7111 135.005 13.7111C134.458 13.7111 133.59 13.8609 133.072 14.867C132.827 14.2624 132.27 13.8413 131.621 13.7708C131.421 13.7341 131.217 13.7221 131.013 13.735C130.568 13.7708 129.776 14.0476 129.48 14.6749V13.8316H128.397V19.4568H129.48V16.4212C129.48 15.2403 130.253 14.7823 131.026 14.7823C131.751 14.7823 132.228 15.3369 132.228 16.2649V19.4568H133.304V16.4212C133.304 15.4813 133.869 14.7715 134.791 14.7823ZM124.421 18.5169C124.916 18.5277 125.394 18.3302 125.74 17.9721C126.087 17.6139 126.272 17.1266 126.253 16.6263C126.253 15.4932 125.42 14.7823 124.421 14.7823C123.422 14.7823 122.589 15.4932 122.589 16.6263C122.57 17.1255 122.754 17.6117 123.099 17.9688C123.444 18.327 123.92 18.5256 124.412 18.5169H124.421ZM124.421 19.5718C122.839 19.5718 121.518 18.4029 121.518 16.6198C121.518 14.8366 122.839 13.7046 124.421 13.7046C126.004 13.7046 127.335 14.8366 127.335 16.6198C127.335 18.4029 125.996 19.5772 124.414 19.5772L124.421 19.5718ZM115.945 16.6198L115.934 16.6263C115.934 14.8431 117.29 13.7111 118.883 13.7046C119.692 13.689 120.47 14.0171 121.024 14.6076L120.204 15.3065C119.852 14.9609 119.376 14.7702 118.883 14.7769C117.884 14.7769 117.016 15.4878 117.016 16.6198C117.016 17.3849 117.471 18.0741 118.169 18.3671C118.867 18.6601 119.67 18.4973 120.204 17.9569L121.036 18.6558C120.481 19.2524 119.698 19.5853 118.883 19.5718C117.302 19.5718 115.945 18.4029 115.945 16.6198ZM112.48 18.3769C112.477 18.1783 112.554 17.9869 112.693 17.8448C112.832 17.7027 113.021 17.6216 113.22 17.6193C113.418 17.6216 113.608 17.7027 113.747 17.8448C113.886 17.9869 113.962 18.1783 113.96 18.3769C113.94 18.7722 113.616 19.0837 113.22 19.0878C112.824 19.0837 112.5 18.7722 112.48 18.3769Z" fill="#333333"/>
<path d="M115.441 6.68114H111.587L108.885 13.6455L106.198 6.68114H102.344L107.029 17.6861L104.115 24.962H107.941L115.441 6.68114ZM92.0023 12.8023C92.0023 14.5605 93.5391 15.7174 95.0487 15.7174C96.5323 15.7174 97.9899 14.6408 97.9899 12.8012C97.9899 10.9616 96.5323 9.88388 95.0487 9.88388C93.5391 9.88388 92.0023 11.0419 92.0023 12.8012V12.8023ZM97.9899 18.9473V17.5548C97.2085 18.7378 95.3852 19.1849 94.4497 19.1849C91.3522 19.1849 88.2536 16.743 88.2536 12.8012C88.2536 8.86043 91.3511 6.4185 94.4497 6.4185C95.23 6.4185 97.0533 6.67897 97.9899 8.04646V6.68548H101.582V18.9494L97.9899 18.9483V18.9473ZM87.2313 18.9473H83.6389V17.4235C83.0387 18.5522 81.5834 19.2099 80.0726 19.2099C76.948 19.2099 74.1881 16.7148 74.1881 12.8511C74.1881 8.9147 76.948 6.41633 80.0726 6.41633C81.5812 6.41633 83.0409 7.0458 83.6389 8.17561V0H87.2313V18.9473ZM83.5608 12.774C83.5608 10.9355 82.2334 9.85783 80.7498 9.85783C79.213 9.85783 77.9367 11.0137 77.9367 12.774C77.9367 14.5908 79.213 15.7413 80.7487 15.7413C82.2606 15.7434 83.5608 14.5344 83.5608 12.774ZM65.3059 12.4571C65.3059 10.5926 66.2697 9.96202 67.5449 9.96202C68.7681 9.96202 69.6537 10.776 69.6537 12.404V18.9451H73.2721V11.6171C73.2721 8.1246 71.553 6.41633 68.8191 6.41633C67.3876 6.41633 65.956 7.23031 65.3049 8.46538V6.68114H61.6886V18.9451H65.3059V12.4571ZM54.3411 19.1556C50.905 19.1556 48.0387 16.6345 48.0387 12.773C48.0387 8.90927 50.9018 6.41307 54.3411 6.41307C57.7804 6.41307 60.6684 8.90927 60.6684 12.773C60.6684 16.6366 57.7772 19.1567 54.3411 19.1567V19.1556ZM54.3411 15.585C55.8497 15.585 57.101 14.4801 57.101 12.774C57.101 11.119 55.8508 9.98915 54.3411 9.98915C53.6065 9.97766 52.8994 10.2684 52.3854 10.7934C51.8685 11.321 51.5877 12.0357 51.6072 12.774C51.6083 14.4823 52.8575 15.585 54.3411 15.585ZM41.5519 9.9631C42.6187 9.9631 43.5564 10.8042 43.5564 12.405V18.9473H47.1488V11.9818C47.1488 8.27871 45.3483 6.41416 42.4624 6.41416C41.605 6.41416 39.9901 6.67463 38.818 8.59345C38.1407 7.17495 36.8395 6.43912 34.9163 6.43912C33.5526 6.43218 32.3108 7.22327 31.7407 8.46213V6.68223H28.1201V18.9462H31.7374V12.4571C31.7374 10.5926 32.7533 9.96202 33.8462 9.96202C34.8881 9.96202 35.8236 10.776 35.8507 12.3258V18.9462H39.4692V12.4571C39.4692 10.674 40.4069 9.96419 41.5519 9.96419V9.9631Z" fill="#333333"/>
</svg>
