<svg width="138" height="33" viewBox="0 0 138 33" fill="none" xmlns="http://www.w3.org/2000/svg">
<path d="M0.299217 24.3274C0.134742 24.2324 0 23.9995 0 23.8104V8.32749C0 8.1381 0.134742 7.90557 0.299217 7.81035L13.88 0.0712809C14.0446 -0.0237603 14.3139 -0.0237603 14.4786 0.0712809L28.0585 7.81121C28.2231 7.90625 28.3577 8.13879 28.3577 8.32818V23.8111C28.3577 24 28.2231 24.2327 28.0585 24.3281L14.4786 32.0674C14.3139 32.1624 14.0446 32.1624 13.88 32.0674L0.299217 24.3274ZM41.114 9.86843V16.1484H43.7994C45.7484 16.1484 46.6145 15.3544 46.6145 14.0551V11.9617C46.6145 10.6626 45.7484 9.86843 43.7994 9.86843H41.114ZM41.114 18.1454V23.7517C41.114 24.0884 41.0274 24.2327 40.7242 24.2327H39.4031C39.1216 24.2327 39.0133 24.0884 39.0133 23.7517V8.35276C39.0133 8.0159 39.1216 7.87137 39.4031 7.87137H43.7994C47.5242 7.87137 48.7153 9.60376 48.7153 11.5768V14.4402C48.7153 16.413 47.5242 18.1454 43.7994 18.1454H41.114ZM53.6024 9.86843V15.7634H56.2876C58.2367 15.7634 59.1031 14.9934 59.1031 13.6701V11.9617C59.1031 10.6626 58.2367 9.86843 56.2876 9.86843H53.6024ZM53.6024 17.7605V23.7517C53.6024 24.0884 53.5156 24.2327 53.2124 24.2327H51.8915C51.61 24.2327 51.5017 24.0884 51.5017 23.7517V8.35276C51.5017 8.0159 51.61 7.87137 51.8915 7.87137H56.2876C60.0126 7.87137 61.2036 9.60376 61.2036 11.5768V14.0791C61.2036 15.5468 60.5323 16.8702 58.6698 17.4478L61.2686 23.7517C61.3769 24.0404 61.182 24.2327 60.8788 24.2327H59.5793C59.2762 24.2327 59.2329 24.0404 59.1031 23.7517L56.6558 17.7605H53.6024ZM72.5881 11.7693C72.5881 10.47 71.674 9.67595 69.6168 9.67595C67.5824 9.67595 66.6683 10.47 66.6683 11.7693V20.3348C66.6683 21.6343 67.5824 22.4281 69.6168 22.4281C71.674 22.4281 72.5881 21.6343 72.5881 20.3348V11.7693ZM64.4282 11.3843C64.4282 9.41127 65.7082 7.67905 69.6168 7.67905C73.5482 7.67905 74.8284 9.41127 74.8284 11.3843V20.72C74.8284 22.693 73.5482 24.4254 69.6168 24.4254C65.7082 24.4254 64.4282 22.693 64.4282 20.72V11.3843ZM86.8971 7.87137C87.1942 7.87137 87.3314 7.99184 87.3314 8.32853V9.41127C87.3314 9.74813 87.1942 9.86843 86.8971 9.86843H83.24V23.7517C83.24 24.0884 83.1257 24.2327 82.8284 24.2327H81.4113C81.1142 24.2327 80.9999 24.0884 80.9999 23.7517V9.86843H77.3426C77.0228 9.86843 76.9085 9.74813 76.9085 9.41127V8.32853C76.9085 7.99184 77.0228 7.87137 77.3426 7.87137H86.8971ZM97.5493 11.7693C97.5493 10.47 96.6349 9.67595 94.5779 9.67595C92.5435 9.67595 91.6292 10.47 91.6292 11.7693V20.3348C91.6292 21.6343 92.5435 22.4281 94.5779 22.4281C96.6349 22.4281 97.5493 21.6343 97.5493 20.3348V11.7693ZM89.3891 11.3843C89.3891 9.41127 90.6692 7.67905 94.5779 7.67905C98.5093 7.67905 99.7894 9.41127 99.7894 11.3843V20.72C99.7894 22.693 98.5093 24.4254 94.5779 24.4254C90.6692 24.4254 89.3891 22.693 89.3891 20.72V11.3843ZM113.02 23.7756C113.02 24.0884 112.933 24.2327 112.63 24.2327H111.439C111.222 24.2327 111.136 24.1605 111.049 24.0162L105.96 14.1034C105.484 13.2129 105.224 12.467 105.18 12.3708V23.7756C105.18 24.0884 105.072 24.2327 104.791 24.2327H103.578C103.296 24.2327 103.188 24.0884 103.188 23.7756V8.32853C103.188 8.0159 103.296 7.87137 103.578 7.87137H104.791C104.964 7.87137 105.072 7.94355 105.137 8.06385L110.356 18.1936C110.659 18.771 111.028 19.7333 111.028 19.7333V8.32853C111.028 8.0159 111.158 7.87137 111.439 7.87137H112.63C112.933 7.87137 113.02 8.0159 113.02 8.32853V23.7756ZM116.744 24.2327C116.463 24.2327 116.354 24.0884 116.354 23.7517V8.35276C116.354 8.0159 116.463 7.87137 116.744 7.87137H124.15C124.432 7.87137 124.562 7.99184 124.562 8.32853V9.41127C124.562 9.74813 124.432 9.86843 124.15 9.86843H118.455V14.7288H123.761C124.064 14.7288 124.194 14.8491 124.194 15.1859V16.2206C124.194 16.5334 124.064 16.6777 123.761 16.6777H118.455V22.2358H124.389C124.67 22.2358 124.8 22.3321 124.8 22.6688V23.7756C124.8 24.1126 124.67 24.2327 124.389 24.2327H116.744ZM136.736 7.87137C137.018 7.87137 137.148 7.99184 137.148 8.32853V9.41127C137.148 9.74813 137.018 9.86843 136.736 9.86843H133.272V23.7517C133.272 24.0884 133.163 24.2327 132.882 24.2327H131.539C131.258 24.2327 131.149 24.0884 131.149 23.7517V9.86843H127.684C127.381 9.86843 127.273 9.74813 127.273 9.41127V8.32853C127.273 7.99184 127.381 7.87137 127.684 7.87137H136.736Z" fill="#E15B29"/>
</svg>
