<svg width="138" height="21" viewBox="0 0 138 21" fill="none" xmlns="http://www.w3.org/2000/svg">
<path d="M130.213 9.22595V12.0854H132.222V14.9225C132.228 15.1398 132.218 15.3717 132.188 15.5713L132.171 15.6682C132.168 15.6898 132.164 15.712 132.159 15.7348L132.143 15.8045C132.14 15.8164 132.136 15.8284 132.133 15.8405L132.11 15.9141C131.929 16.4365 131.385 17.0984 130.162 17.0984C128.86 17.0984 128.337 16.3385 128.194 15.8045L128.177 15.7348L128.165 15.6682C128.129 15.4494 128.113 15.176 128.113 14.9225V5.96165C128.113 5.6799 128.13 5.37448 128.181 5.12567L128.216 4.97447C128.218 4.964 128.221 4.95336 128.224 4.94256L128.243 4.87597C128.246 4.86459 128.25 4.85307 128.254 4.84143L128.279 4.77025C128.465 4.27516 128.956 3.61576 130.151 3.61576C131.074 3.61576 131.571 3.99178 131.837 4.38042L131.884 4.45335C131.899 4.47765 131.913 4.50191 131.926 4.52604L131.963 4.59796L131.996 4.66859L132.024 4.73737L132.048 4.8038L132.069 4.86732L132.086 4.92741L132.1 4.98354L132.111 5.03518C132.117 5.06085 132.121 5.08812 132.126 5.11646L132.137 5.20423C132.139 5.21923 132.141 5.23438 132.142 5.24961L132.154 5.38725L132.162 5.51925L132.169 5.69923L132.171 5.79146V6.87956H137.109L137.11 6.20222L137.113 5.95997L137.112 5.77219L137.108 5.55355L137.104 5.43584L137.095 5.25236L137.082 5.06441L137.071 4.93875C136.737 1.6286 134.249 0.355048 131.222 0.133438L131.019 0.120212L130.815 0.110038C130.713 0.105703 130.61 0.102488 130.507 0.100357L130.299 0.0975293C130.264 0.0971789 130.23 0.0971789 130.195 0.0971789L129.987 0.0985988C129.952 0.0990738 129.918 0.099669 129.883 0.100386L129.677 0.106152L129.472 0.114896L129.269 0.126679L129.068 0.141566C129.001 0.147053 128.934 0.153067 128.868 0.15962L128.67 0.180904C128.637 0.184724 128.604 0.188681 128.572 0.192776L128.377 0.219024C127.924 0.284196 127.489 0.377037 127.077 0.501166L126.902 0.556291C124.988 1.18396 123.598 2.51845 123.312 4.93875L123.283 5.20742L123.263 5.41543L123.244 5.63351L123.228 5.85048C123.219 5.99227 123.214 6.12585 123.214 6.23632L123.214 14.5851L123.216 14.6888L123.22 14.8463L123.225 14.9567L123.231 15.0746L123.24 15.2028L123.252 15.3441L123.273 15.5865L123.292 15.7724C123.569 18.8484 125.9 20.2168 128.753 20.5396L128.953 20.5605C129.287 20.5924 129.628 20.6104 129.974 20.6155L130.181 20.617L130.39 20.6155C130.737 20.6104 131.08 20.5924 131.415 20.5605L131.616 20.5396C134.478 20.2168 136.794 18.8484 137.076 15.7724L137.099 15.5012L137.116 15.2717L137.131 15.0145L137.14 14.793L137.148 14.4794V9.22595H130.213ZM96.1661 0.624614H91.2074V15.1292C91.2152 15.382 91.2074 15.6659 91.1639 15.8741L91.1493 15.9373L91.1312 16.0044C91.1245 16.0275 91.1173 16.0511 91.1093 16.0751L91.0834 16.1487C90.8963 16.6474 90.4198 17.2981 89.2797 17.2981C88.2106 17.2981 87.7225 16.7108 87.518 16.2245L87.4881 16.1487C87.4835 16.1362 87.479 16.1238 87.4748 16.1116L87.4514 16.0394L87.4321 15.9704C87.4292 15.9592 87.4264 15.9481 87.4239 15.9373L87.4101 15.8741C87.3605 15.6659 87.3543 15.382 87.3605 15.1292V0.624614H82.4034V14.679L82.4025 14.792L82.4043 14.9896L82.4112 15.2803L82.4248 15.6336L82.4343 15.8115L82.4407 15.9059L82.447 15.9754C82.6899 18.5756 84.2154 19.9291 86.3697 20.4954L86.5533 20.5414C86.9541 20.6371 87.3754 20.7068 87.8132 20.7533L88.0164 20.7732L88.2218 20.7898L88.4294 20.8033C88.5338 20.8092 88.6389 20.814 88.7447 20.8177L88.9573 20.8235L89.1718 20.8264C89.2077 20.8267 89.2437 20.8267 89.2797 20.8267L89.4955 20.8253C89.5313 20.8248 89.567 20.8242 89.6027 20.8235L89.8157 20.8177C89.9217 20.814 90.027 20.8092 90.1315 20.8033L90.3395 20.7898L90.5452 20.7732L90.7487 20.7533C93.6489 20.4453 95.8244 19.125 96.124 15.9754L96.128 15.944L96.1361 15.8615L96.1481 15.697L96.1588 15.4978L96.1647 15.3539L96.1708 15.1331L96.1725 14.9896L96.1719 14.8548L96.1687 14.7333C96.168 14.7144 96.1671 14.6963 96.1661 14.679V0.624614ZM50.6053 0.624614L48.1317 15.9507L45.6597 0.624614H37.6611L37.2369 20.2311H42.1371L42.2698 2.08079L45.6413 20.2311H50.6131L53.9877 2.08079L54.1208 20.2311H59.0334L58.5948 0.624614H50.6053ZM20.9906 0.624614L17.3588 20.2311H22.655L25.3919 2.08079L28.063 20.2311H33.3225L29.7058 0.624614H20.9906ZM113.496 16.4101L108.878 0.624614H101.603V20.0267H106.416L106.136 3.7361L111.095 20.0267H118.073V0.624614H113.228L113.496 16.4101ZM68.9751 5.72726C68.888 5.34006 68.9132 4.92868 68.9582 4.71368C68.971 4.65662 68.9861 4.59909 69.0039 4.54165L69.0326 4.45563C69.2282 3.91208 69.6858 3.40151 70.7352 3.40151C71.8676 3.40151 72.5315 4.10744 72.5315 5.16685V6.36572H77.3652V4.99917C77.3652 1.91528 75.3469 0.728977 73.1902 0.313189L73.0127 0.280727L72.8348 0.251595L72.6567 0.225656L72.4787 0.20277L72.301 0.182797L72.1238 0.165599C72.0649 0.160314 72.0061 0.155467 71.9474 0.151037L71.772 0.138972L71.5979 0.129264L71.4252 0.121775L71.2542 0.116365L71.0851 0.112896L70.8356 0.111026L70.7256 0.111413L70.5069 0.114534C70.4706 0.115317 70.4344 0.116231 70.3983 0.11728L70.1824 0.125175C70.1108 0.128346 70.0395 0.132057 69.9686 0.136319L69.7569 0.150764C66.808 0.37634 64.5067 1.58764 64.0464 4.42819C63.9102 5.29323 63.8765 6.06109 64.0933 7.04094C64.4344 8.65108 65.7758 9.79687 67.3155 10.7579L67.5538 10.9043C67.5938 10.9285 67.6338 10.9526 67.674 10.9765L67.9158 11.119L68.1591 11.2591L68.4033 11.3972L68.7698 11.6007L69.7327 12.1284L69.9666 12.2581L70.1966 12.3874L70.4219 12.5165L70.6418 12.6456C71.6912 13.2701 72.532 13.9035 72.8346 14.6607C73.002 15.1105 72.9654 15.6776 72.8844 16.0394L72.8706 16.0977C72.8506 16.1847 72.8254 16.2717 72.7938 16.3573L72.7599 16.4423C72.5373 16.9626 72.0504 17.4061 70.9809 17.4061C69.7608 17.4061 69.0265 16.7047 69.0265 15.6476L69.025 13.7659H63.8221V15.2616C63.8221 18.7722 66.0494 20.2971 68.8389 20.7499L69.0465 20.7815C69.1856 20.8012 69.3259 20.8184 69.4673 20.8332L69.6802 20.8535C69.9295 20.8751 70.1817 20.8894 70.4358 20.8969L70.6541 20.9017C70.6905 20.9022 70.727 20.9026 70.7635 20.9029L70.8731 20.9033C70.9461 20.9033 71.0188 20.9028 71.0912 20.9017L71.3075 20.897C71.3434 20.8959 71.3793 20.8947 71.415 20.8934L71.6287 20.8839C71.6996 20.8801 71.7702 20.8759 71.8404 20.871L72.0501 20.8549C72.1892 20.843 72.3269 20.8288 72.463 20.8124L72.666 20.786L72.8665 20.7561C72.933 20.7455 72.999 20.7344 73.0646 20.7226L73.26 20.6855C75.6213 20.2124 77.3782 18.9295 77.731 16.463C77.7796 16.0951 77.8095 15.7554 77.8256 15.4448L77.8343 15.2421C77.8355 15.209 77.8364 15.1763 77.8373 15.144L77.8405 14.9544V14.7736L77.8375 14.6017L77.8319 14.4387L77.824 14.2847C77.8225 14.2598 77.8209 14.2353 77.8193 14.2111L77.8085 14.0708L77.7963 13.9397L77.7829 13.8178L77.7614 13.6524L77.7391 13.5082L77.71 13.3493L77.6965 13.2843C77.3561 11.5769 75.8613 10.371 74.2007 9.37829L73.9625 9.2379L73.7226 9.10022L73.4817 8.96507L73.12 8.76668L72.6404 8.50927L71.8223 8.07415L71.4857 7.89203C71.4489 7.87189 71.4123 7.8518 71.3759 7.83172L71.1605 7.7116L70.9512 7.59194C69.9209 6.99455 69.1421 6.40799 68.9751 5.72726ZM5.21141 5.67917C5.12243 5.30862 5.13634 4.91881 5.18199 4.6923L5.20088 4.60749L5.22233 4.52357C5.38562 3.93483 5.83209 3.328 6.98605 3.328C8.13282 3.328 8.80803 4.04073 8.80803 5.10869V6.32217H13.6984V4.94479C13.6984 2.00191 11.8677 0.765991 9.82192 0.282531L9.64353 0.242364C9.49448 0.210433 9.34455 0.182309 9.19435 0.157627L9.01403 0.129638L8.83368 0.104814L8.65354 0.0830167L8.47386 0.0641058C8.41407 0.0582678 8.35439 0.0528876 8.29487 0.047942L8.11679 0.0343859L7.93988 0.023298L7.76436 0.0145388L7.59048 0.00796888L7.41846 0.00344875L7.16445 0H7.08097C7.00765 0 6.93462 0.000512388 6.86188 0.00154546L6.64458 0.00621506C6.50033 0.0103806 6.35733 0.016662 6.21572 0.0251258L6.00435 0.0394666C5.9693 0.0421322 5.93434 0.0449364 5.89947 0.0478801L5.69139 0.0672245C5.6224 0.0742362 5.55381 0.0818142 5.48561 0.0899669L5.28223 0.116157C5.11378 0.139433 4.94793 0.166352 4.78493 0.197044L4.59071 0.235693L4.39932 0.278015L4.21085 0.324058C4.14852 0.340032 4.0867 0.356634 4.0254 0.373873L3.84305 0.427509C1.94513 1.01092 0.577386 2.23452 0.232122 4.35769C0.0896261 5.23658 0.0652055 6.00973 0.271144 7.0004C0.633708 8.71237 2.11242 9.9046 3.76676 10.9064L4.01 11.0516C4.05071 11.0756 4.0915 11.0995 4.13236 11.1233L4.37813 11.265L4.74822 11.4735L5.2409 11.7453L5.9676 12.1435L6.32062 12.34L6.66381 12.5358L6.88605 12.6664C6.9226 12.6881 6.95891 12.7099 6.99495 12.7317L7.20793 12.8627C8.11617 13.4316 8.82751 14.0175 9.10209 14.7045C9.28192 15.1512 9.23987 15.7181 9.15489 16.0917L9.14035 16.1521C9.11937 16.2381 9.0936 16.3241 9.06173 16.4088L9.02779 16.493C8.79933 17.0225 8.30903 17.4766 7.22548 17.4766C6.00067 17.4766 5.26805 16.7631 5.26805 15.6914L5.26126 13.8047H0V15.3039C0 19.5122 3.17289 20.8954 6.68674 20.9993L6.90677 21.0041L7.12754 21.0057L7.34584 21.0042C7.45457 21.0026 7.56266 20.9999 7.67006 20.996L7.8839 20.9866C7.99035 20.981 8.09606 20.9743 8.20099 20.9663L8.40979 20.9487L8.61641 20.9277C8.68491 20.9201 8.75302 20.912 8.82075 20.9033L9.02271 20.8755C9.08963 20.8656 9.15613 20.8552 9.22221 20.8442L9.41914 20.8093C11.8644 20.3515 13.6867 19.0544 14.0537 16.5174C14.1042 16.155 14.1358 15.8197 14.1535 15.5124L14.1632 15.3117L14.1692 15.1194C14.1706 15.0567 14.1714 14.9954 14.1717 14.9355L14.171 14.7601L14.1676 14.5932L14.1617 14.435L14.1536 14.2854L14.1437 14.1445L14.1323 14.0124L14.1132 13.8309L14.0926 13.6695L14.0647 13.4859L14.033 13.308C13.6937 11.6208 12.2436 10.4205 10.612 9.4333L10.3721 9.29032C10.3319 9.26673 10.2917 9.24327 10.2513 9.21991L10.0087 9.08113L9.76512 8.94492L9.5212 8.81108L9.27761 8.67943L8.20279 8.10891L7.85908 7.9247L7.63588 7.80299L7.41817 7.68195L7.20662 7.56137C7.17191 7.5413 7.13748 7.52125 7.10335 7.5012L6.90223 7.38096C6.0142 6.84003 5.36211 6.29883 5.21141 5.67917Z" fill="#1428A0"/>
</svg>
