<svg width="138" height="29" viewBox="0 0 138 29" fill="none" xmlns="http://www.w3.org/2000/svg">
<path d="M135.977 9.84768C137.053 10.7176 135.914 12.0936 134.965 11.3977C133.795 10.6544 131.137 10.3064 130.805 11.9512C130.378 14.5451 137.258 13.0584 137.148 17.2655C137.037 21.2829 131.217 21.3778 129.034 19.5747C128.512 19.1478 128.528 18.4518 128.813 18.0247C129.224 17.6136 129.682 17.4712 130.22 17.914C131.517 18.7997 134.854 19.464 135.092 17.2181C134.886 14.8772 128.306 16.2849 128.797 11.7931C129.16 8.72474 133.795 8.17111 135.977 9.84768ZM125.601 10.4645V16.19C125.601 22.1053 116.064 22.1053 116.064 16.19V10.4645C116.064 9.04112 118.136 8.9778 118.136 10.4645V16.19C118.136 19.3058 123.529 19.4957 123.529 16.19V10.4645C123.529 9.05683 125.601 8.94613 125.601 10.4645ZM60.2936 9.02529C63.0615 9.16753 65.9559 11.0813 65.9559 14.8299C65.9559 18.5783 63.0615 20.5238 60.2936 20.5238C57.3676 20.6503 54.3309 18.7048 54.3309 14.8299C54.3309 10.939 57.3676 9.02529 60.2936 9.02529ZM74.2282 9.42059C78.2456 9.42059 79.0679 14.7982 75.7149 16.1425L77.8185 18.7048C78.6409 19.9228 76.996 21.0931 76.047 19.8911L73.6588 16.4748H71.1756V19.3375C71.1756 20.7135 69.072 20.761 69.072 19.3691V10.3855C69.072 9.83184 69.4991 9.42059 70.0211 9.42059H74.2282ZM41.4558 9.27835C41.9145 9.27835 42.1834 9.54724 42.4523 9.84768L45.9318 14.5451L49.538 9.67365C50.0599 9.0253 51.341 9.27835 51.341 10.3696V19.2743C51.341 19.9701 50.8982 20.3656 50.3921 20.3656C49.8227 20.3656 49.3798 19.9701 49.3798 19.2743V13.4222L46.7543 16.7437C46.1849 17.4395 45.4732 17.4395 44.9512 16.7437L42.5946 13.4222V19.2743C42.5946 19.9701 42.0252 20.3656 41.4558 20.3656C40.9497 20.3656 40.5068 19.9701 40.5068 19.2743V10.3696C40.5068 9.54725 41.2028 9.27835 41.4558 9.27835ZM85.6954 9.27835C87.7516 9.27835 89.602 10.6544 89.602 13.2957C89.602 15.7946 87.7516 17.1865 85.6954 17.1865H83.0541V19.2743C83.0541 19.9701 82.6112 20.3656 82.0418 20.3656C81.5199 20.3656 80.9663 19.9701 80.9663 19.2743V10.3696C80.9663 9.84768 81.3775 9.27835 82.0418 9.27835H85.6954ZM100.8 9.42058C101.354 9.42058 101.781 9.83184 101.781 10.4013V19.385C101.781 19.9385 101.354 20.3656 100.8 20.3656C100.231 20.3656 99.725 19.9385 99.725 19.385V15.9212H94.5689V19.385C94.5689 19.9385 94.1577 20.3656 93.604 20.3656C92.8924 20.3656 92.4811 19.9385 92.4811 19.385V10.4013C92.4811 9.83185 92.8924 9.42058 93.604 9.42058C94.1577 9.42058 94.5689 9.83184 94.5689 10.4013V13.8493H99.725V10.4013C99.725 9.83185 100.231 9.42058 100.8 9.42058ZM111.809 9.42058C113.264 9.42058 113.233 11.4767 111.809 11.4767H107.254V13.8493H111.24C112.647 13.8493 112.647 15.9212 111.24 15.9212H107.254V18.2936H112.078C113.517 18.2936 113.628 20.3656 112.078 20.3656H106.131C105.577 20.3656 105.15 19.9385 105.15 19.385V10.4013C105.15 9.83185 105.577 9.42058 106.131 9.42058H111.809ZM60.1196 11.0813C58.3482 11.0813 56.4186 12.3309 56.4186 14.8299C56.4186 17.313 58.3482 18.5783 60.1196 18.5783C61.9385 18.5783 63.8839 17.313 63.8839 14.8299C63.8839 12.3309 61.9385 11.0813 60.1196 11.0813ZM85.6954 11.2712H83.0541V15.2095H85.6954C86.755 15.2095 87.5934 14.2763 87.5934 13.2957C87.5934 12.1886 86.755 11.2712 85.6954 11.2712ZM74.2282 11.3344H71.1756V14.6558H74.2282C76.2843 14.6558 76.4108 11.3344 74.2282 11.3344Z" fill="#3DB5E6"/>
<path d="M27.9604 17.7239C26.4185 23.9189 20.7766 28.3264 14.1318 28.3264C7.45685 28.3264 1.86356 23.6581 0.384766 17.4375C2.16294 17.4375 3.82528 17.4456 4.59702 17.4456C4.96108 17.4456 5.03178 17.4519 5.05285 17.4504C5.63353 17.4218 6.36166 17.2302 6.84606 16.0522L8.69194 11.2236L12.7914 21.0938C13.1599 21.8806 13.7752 21.8248 14.1423 21.8248H14.1769C14.893 21.8248 15.2044 21.5739 15.4767 21.0549L20.1072 11.2976L21.6868 15.695L21.783 15.9079C22.117 16.6406 22.3572 17.3642 23.1838 17.4588C23.3541 17.4783 25.3327 17.4437 27.9999 17.4437C27.9999 17.4437 27.9999 17.4608 27.9604 17.7239Z" fill="#3DB5E6"/>
<path d="M28.4132 14.0751C28.4132 14.1489 28.4132 14.3342 28.4117 14.3342H28.4087H24.1513L21.6675 7.39596C21.4464 6.87996 21.1139 6.1064 20.1451 6.1064C19.5524 6.1064 19.0168 6.59592 18.7129 7.40377L14.2103 17.8332L9.87624 7.46703C9.452 6.54636 9.15865 6.11336 8.31018 6.11336C7.734 6.11336 7.31127 6.3256 6.85093 7.41627L4.27845 14.4373L0.0045082 14.4328C0.00149703 14.326 0 14.2192 0 14.1124C0 6.30766 6.32741 0 14.1321 0C21.9368 0 28.4132 6.27043 28.4132 14.0751Z" fill="#D8292F"/>
</svg>
