<svg width="138" height="18" viewBox="0 0 138 18" fill="none" xmlns="http://www.w3.org/2000/svg">
<path d="M59.2079 11.5994H68.2703L63.4784 3.88996L54.6836 17.829H50.6809L61.3784 1.08524C61.8435 0.408719 62.6186 0 63.4784 0C64.3099 0 65.0851 0.394632 65.5361 1.05705L76.2758 17.829H72.2731L70.3845 14.7142H61.2092L59.2079 11.5994ZM100.785 14.7142V0.169129H97.3888V16.1377C97.3888 16.5746 97.5579 16.9975 97.8821 17.3216C98.2062 17.6458 98.6431 17.829 99.1223 17.829H114.612L116.613 14.7142H100.785ZM44.5923 12.1068C47.8904 12.1068 50.5682 9.44304 50.5682 6.14502C50.5682 2.84701 47.8904 0.169129 44.5923 0.169129H29.7329V17.829H33.1282V3.28392H44.3668C45.9454 3.28392 47.2138 4.56648 47.2138 6.14502C47.2138 7.72355 45.9454 9.00612 44.3668 9.00612L34.7913 8.99202L44.9305 17.829H49.8635L43.042 12.1068H44.5923ZM8.83143 17.829C3.95624 17.829 0 13.8827 0 9.00612C0 4.12956 3.95624 0.169129 8.83143 0.169129H19.0961C23.9726 0.169129 27.926 4.12956 27.926 9.00612C27.926 13.8827 23.9726 17.829 19.0961 17.829H8.83143ZM18.8678 14.7142C22.0263 14.7142 24.5844 12.1632 24.5844 9.00612C24.5844 5.84904 22.0263 3.28392 18.8678 3.28392H9.0583C5.90122 3.28392 3.34168 5.84904 3.34168 9.00612C3.34168 12.1632 5.90122 14.7142 9.0583 14.7142H18.8678ZM83.3651 17.829C78.4885 17.829 74.5282 13.8827 74.5282 9.00612C74.5282 4.12956 78.4885 0.169129 83.3651 0.169129H95.5565L93.5692 3.28392H83.5906C80.4335 3.28392 77.8685 5.84904 77.8685 9.00612C77.8685 12.1632 80.4335 14.7142 83.5906 14.7142H95.8383L93.837 17.829H83.3651ZM124.9 14.7142C122.293 14.7142 120.08 12.9665 119.404 10.5565H133.921L135.922 7.44167H119.404C120.08 5.04568 122.293 3.28392 124.9 3.28392H134.865L136.88 0.169129H124.675C119.798 0.169129 115.838 4.12956 115.838 9.00612C115.838 13.8827 119.798 17.829 124.675 17.829H135.147L137.148 14.7142H124.9Z" fill="#EA1B22"/>
</svg>
