<svg width="138" height="22" viewBox="0 0 138 22" fill="none" xmlns="http://www.w3.org/2000/svg">
<path d="M19.2721 21.3612V15.8008H13.2168C11.5701 15.8008 10.0448 16.6652 9.20137 18.0765L7.23828 21.3612H19.2721Z" fill="#63D2F9"/>
<path d="M0 0V5.56039H15.949L19.2722 0H0Z" fill="#4E5EE4"/>
<path d="M7.63304 8.69021L0.0175781 21.3612H6.50577L15.6125 6.20215H12.0297C10.2276 6.20215 8.55802 7.14695 7.63304 8.69021Z" fill="#63B0F9"/>
<path d="M33.0764 16.0244C29.8138 16.0244 27.4131 13.6529 27.4131 10.4705C27.4131 7.31877 29.8292 4.91668 33.0918 4.91668C36.3543 4.91668 38.7704 7.34937 38.7704 10.4705C38.7704 13.6223 36.3389 16.0244 33.0764 16.0244ZM33.0918 14.0813C35.1539 14.0813 36.6313 12.5513 36.6313 10.4705C36.6313 8.42036 35.1539 6.85977 33.0918 6.85977C31.0142 6.85977 29.5368 8.42036 29.5368 10.4705C29.5368 12.5513 31.0142 14.0813 33.0918 14.0813ZM40.9552 19.3445V7.77776H42.925V8.80286H43.0327C43.2482 8.46626 43.9869 7.57887 45.4643 7.57887C47.7265 7.57887 49.2808 9.26186 49.2808 11.771C49.2808 14.2802 47.7419 16.0244 45.5258 16.0244C44.0946 16.0244 43.3251 15.2288 43.0635 14.7851H42.9558V19.3445H40.9552ZM45.0795 14.219C46.3722 14.219 47.2494 13.2245 47.2494 11.8016C47.2494 10.3328 46.3722 9.38425 45.0641 9.38425C43.7406 9.38425 42.9096 10.4399 42.9096 11.8016C42.9096 13.301 43.833 14.219 45.0795 14.219ZM55.0051 16.0244C52.6197 16.0244 50.9269 14.2496 50.9269 11.8475C50.9269 9.30775 52.6351 7.57887 55.0051 7.57887C57.6059 7.57887 59.0217 9.49135 59.0217 11.7557V12.383H52.866C52.9275 13.607 53.7739 14.4332 55.0667 14.4332C56.0516 14.4332 56.8057 13.9742 57.0827 13.3163H58.9448C58.5447 14.9534 57.0981 16.0244 55.0051 16.0244ZM52.8968 10.9754H57.1134C57.0211 9.88915 56.1747 9.17006 55.0051 9.17006C53.8817 9.17006 53.0199 9.96565 52.8968 10.9754ZM61.1757 15.8255V7.77776H63.084V8.75696H63.1917C63.5149 8.16026 64.3151 7.57887 65.4693 7.57887C67.2853 7.57887 68.3933 8.84876 68.3933 10.5623V15.8255H66.3927V11.0825C66.3927 10.1033 65.7617 9.44545 64.8383 9.44545C63.8688 9.44545 63.1763 10.2104 63.1763 11.2202V15.8255H61.1757ZM70.3779 15.8255V14.0048L75.9797 6.98217V6.87507H70.578V5.11558H78.5343V6.92097L72.9326 13.9436V14.066H78.5651V15.8255H70.3779ZM83.9816 16.0244C81.5962 16.0244 79.9034 14.2496 79.9034 11.8475C79.9034 9.30775 81.6116 7.57887 83.9816 7.57887C86.5824 7.57887 87.9982 9.49135 87.9982 11.7557V12.383H81.8425C81.904 13.607 82.7504 14.4332 84.0431 14.4332C85.0281 14.4332 85.7821 13.9742 86.0592 13.3163H87.9213C87.5211 14.9534 86.0745 16.0244 83.9816 16.0244ZM81.8732 10.9754H86.0899C85.9976 9.88915 85.1512 9.17006 83.9816 9.17006C82.8582 9.17006 81.9964 9.96565 81.8732 10.9754ZM90.1522 19.3445V7.77776H92.122V8.80286H92.2297C92.4452 8.46626 93.1839 7.57887 94.6612 7.57887C96.9235 7.57887 98.4778 9.26186 98.4778 11.771C98.4778 14.2802 96.9389 16.0244 94.7228 16.0244C93.2916 16.0244 92.5221 15.2288 92.2605 14.7851H92.1528V19.3445H90.1522ZM94.2765 14.219C95.5692 14.219 96.4464 13.2245 96.4464 11.8016C96.4464 10.3328 95.5692 9.38425 94.2611 9.38425C92.9376 9.38425 92.1066 10.4399 92.1066 11.8016C92.1066 13.301 93.03 14.219 94.2765 14.219ZM100.632 19.3445V7.77776H102.602V8.80286H102.709C102.925 8.46626 103.663 7.57887 105.141 7.57887C107.403 7.57887 108.957 9.26186 108.957 11.771C108.957 14.2802 107.418 16.0244 105.202 16.0244C103.771 16.0244 103.002 15.2288 102.74 14.7851H102.632V19.3445H100.632ZM104.756 14.219C106.049 14.219 106.926 13.2245 106.926 11.8016C106.926 10.3328 106.049 9.38425 104.741 9.38425C103.417 9.38425 102.586 10.4399 102.586 11.8016C102.586 13.301 103.51 14.219 104.756 14.219ZM114.682 16.0244C112.296 16.0244 110.604 14.2496 110.604 11.8475C110.604 9.30775 112.312 7.57887 114.682 7.57887C117.282 7.57887 118.698 9.49135 118.698 11.7557V12.383H112.543C112.604 13.607 113.451 14.4332 114.743 14.4332C115.728 14.4332 116.482 13.9742 116.759 13.3163H118.621C118.221 14.9534 116.775 16.0244 114.682 16.0244ZM112.573 10.9754H116.79C116.698 9.88915 115.851 9.17006 114.682 9.17006C113.558 9.17006 112.696 9.96565 112.573 10.9754ZM122.822 15.8255C121.406 15.8255 120.606 14.984 120.606 13.5611V4.35059H122.607V13.3775C122.607 13.8365 122.837 14.0813 123.253 14.0813H123.576V15.8255H122.822ZM126.5 6.70677C125.776 6.70677 125.268 6.26307 125.268 5.54398C125.268 4.85548 125.776 4.39649 126.5 4.39649C127.223 4.39649 127.731 4.85548 127.731 5.54398C127.731 6.26307 127.223 6.70677 126.5 6.70677ZM125.499 15.8255V7.77776H127.5V15.8255H125.499ZM129.931 15.8255V7.77776H131.839V8.75696H131.947C132.27 8.16026 133.07 7.57887 134.224 7.57887C136.04 7.57887 137.148 8.84876 137.148 10.5623V15.8255H135.148V11.0825C135.148 10.1033 134.517 9.44545 133.594 9.44545C132.624 9.44545 131.931 10.2104 131.931 11.2202V15.8255H129.931Z" fill="#282846"/>
</svg>
