<svg width="61" height="171" viewBox="0 0 61 171" fill="none" xmlns="http://www.w3.org/2000/svg">
<path fill-rule="evenodd" clip-rule="evenodd" d="M4.45617 54.0449C4.38203 53.7674 4.24038 53.6179 3.97901 53.6684C3.52919 53.755 3.27736 54.0317 3.25168 54.4964C3.23759 54.7511 3.38754 54.8004 3.59961 54.7627C4.03535 54.6853 4.23748 54.3452 4.45617 54.0449ZM2.15529 135.872C2.59972 134.622 2.88759 133.333 3.2612 132.066C2.5289 133.227 2.13251 134.489 2.15529 135.872ZM5.44901 51.4533C7.30298 49.4543 9.23771 47.5345 11.2027 45.6445C8.81481 47.1186 6.97038 49.1267 5.44901 51.4533ZM41.9874 31.6694C45.815 29.938 48.9985 27.3443 52.0371 24.5492C48.8672 26.9309 45.7015 29.315 42.3175 31.3918C42.1965 31.4664 42.0971 31.5762 41.9874 31.6694ZM85.763 127.863C84.6504 131.664 82.4419 134.888 81.3302 138.577C82.7285 137.591 86.3391 129.101 85.763 127.863ZM40.8682 165.652C41.6146 165.652 42.368 165.717 43.1065 165.641C46.1327 165.33 49.1191 164.756 52.105 164.19C56.5353 163.351 60.6219 161.469 64.8144 159.924C66.7487 159.211 68.599 158.238 69.9095 156.522C74.2404 150.852 77.7271 144.747 80.2024 138.008C82.1781 132.631 84.7487 127.474 86.8603 122.143C88.368 118.337 89.3301 114.35 89.7613 110.258C90.1204 106.849 89.9187 103.43 89.9432 100.014C89.963 97.2051 89.9133 94.3981 90.0902 91.5798C90.2145 89.595 89.7692 87.5273 89.599 85.494C89.2987 81.9136 89.3529 78.3776 90.441 74.9045C91.445 71.7002 92.8061 68.6492 94.4961 65.7668C97.9169 59.9307 102.205 54.7317 106.703 49.712C109.119 47.0163 111.489 44.2942 113.487 41.2726C117.163 35.7128 118.926 29.5723 118.774 22.9235C118.656 17.7257 116.379 13.6901 111.895 10.9481C104.1 6.18231 95.8708 4.65722 87.0367 7.55953C80.1949 9.8074 74.1033 13.3791 68.5306 17.9154C65.0551 20.7448 61.8819 23.9122 58.4158 26.7499C53.6952 30.6156 48.8991 34.3662 43.3393 36.9947C39.0366 39.0293 34.5139 40.4604 29.9652 41.8057C26.082 42.9543 22.3791 44.5046 18.8807 46.5396C14.8431 48.8881 11.4334 51.8927 9.07327 55.9863C8.79286 56.4738 8.78209 56.4676 8.14339 56.4808C7.94955 56.485 7.93753 56.6461 7.87251 56.7753C7.28185 57.9537 6.89623 59.1831 6.88049 60.5156C6.86972 61.4156 7.21724 62.703 6.90907 63.1362C5.91955 64.5263 6.66469 65.8728 6.84694 67.0442C7.07351 68.4972 7.45416 70.0049 7.89943 71.4608C9.01653 75.1157 10.3001 78.7052 12.1206 82.0627C13.7898 85.1427 15.4068 88.2501 15.8885 91.7385C16.0277 92.7495 17.2463 93.9039 15.9457 94.9837C15.9453 94.9841 16.0368 95.0848 16.0758 95.1449C16.7662 96.2089 17.115 97.4101 17.1676 98.644C17.2185 99.8228 17.6398 100.925 17.6903 102.09C17.7719 103.97 18.4694 105.798 18.0664 107.73C17.8833 108.608 17.926 109.541 17.9243 110.449C17.9206 112.471 17.2355 114.397 17.1295 116.424C17.0897 117.183 16.4266 118.148 16.0613 119.017C14.7516 122.134 12.4283 124.508 10.39 127.108C8.47227 129.554 6.31759 131.952 6.11588 135.305C6.03469 136.658 5.63209 138.085 6.33002 139.355C8.20759 142.767 9.19505 146.635 11.771 149.693C13.7757 152.074 15.1219 154.959 17.5644 157.027C19.9531 159.05 22.2337 161.228 24.9931 162.723C26.3475 163.456 27.721 164.207 29.3111 164.558C33.1317 165.401 36.9751 165.706 40.8682 165.652ZM72.4874 8.19962C72.6983 8.13583 72.9265 8.10394 73.1174 8.00246C77.887 5.46589 82.8578 3.45702 88.1298 2.22352C88.3203 2.17879 88.5816 2.18542 88.6947 1.89258C88.3381 1.94352 88.003 1.98329 87.6708 2.04086C83.2935 2.80216 79.236 4.47264 75.2949 6.45086C74.3141 6.94335 73.2405 7.32566 72.5073 8.22281C71.3322 8.30483 70.6148 9.29642 69.598 9.70441C69.4199 9.77565 69.2277 10.0996 69.4994 10.3746C69.5897 10.4657 69.7144 10.5245 69.7703 10.4173C70.3622 9.28855 71.7978 9.20033 72.4874 8.19962ZM59.1635 25.3689C60.5278 24.5202 61.6135 23.3609 62.697 22.2003C61.5302 23.2677 60.1203 24.0683 59.1854 25.3921C58.1893 25.745 57.5526 26.554 56.8414 27.2672C57.7452 26.7959 58.521 26.1646 59.1635 25.3689ZM89.2701 133.903C88.4781 136.07 87.7197 138.223 86.1168 140.007C85.1479 141.085 84.3755 142.382 83.7364 143.69C83.5048 144.164 83.0794 144.308 82.8371 144.732C82.2717 145.722 82.0642 146.841 81.3402 147.803C79.7082 149.972 78.0974 152.15 76.3938 154.268C75.2697 155.666 74.2176 157.134 73.0495 158.499C70.8729 161.041 68.0949 162.747 65.0111 163.961C61.4478 165.364 57.9179 166.886 54.2755 168.049C47.4875 170.217 40.5592 171.09 33.389 170.235C29.0693 169.72 24.8622 168.904 21.1601 166.698C15.2395 163.169 10.3585 158.47 6.91114 152.408C6.78191 152.181 6.61582 151.975 6.46049 151.763C5.05138 149.847 3.77937 147.867 3.13239 145.533C2.8118 144.378 2.33836 143.27 1.81564 142.181C0.265286 138.95 0.563097 135.697 1.81523 132.457C3.07564 129.195 5.18061 126.426 7.53369 123.971C10.6779 120.691 12.1533 116.886 12.623 112.489C13.06 108.399 12.3421 104.438 11.6136 100.462C11.1666 98.0227 10.7669 95.5731 10.2869 93.1401C9.51233 89.218 7.70807 85.7222 5.85535 82.2176C3.44345 77.6544 1.59984 72.8505 0.485227 67.7848C-0.447554 63.5459 0.0122095 59.3836 1.4557 55.3869C2.28742 53.0844 3.36848 50.8245 5.12055 48.9594C6.82623 47.1431 8.54724 45.3645 10.5814 43.914C15.4702 40.4268 20.8598 37.9805 26.5741 36.1999C33.0982 34.167 39.452 31.7617 45.0264 27.6665C49.1568 24.6321 53.0867 21.3574 56.8613 17.893C62.0011 13.1757 67.3845 8.78432 73.6058 5.53657C79.6366 2.38864 85.9353 -0.0617722 92.8289 0.0011864C103.205 0.0960385 112.088 3.76255 118.382 12.2967C123.036 18.6092 123.79 25.8424 122.269 33.3941C121.995 34.7576 121.717 36.1208 121.398 37.4744C120.58 40.9516 119.165 44.1488 117.088 47.0814C115.877 48.7904 114.572 50.4269 113.36 52.1176C111.938 54.1021 110.354 55.9204 108.716 57.6932C106.82 59.7464 105.14 61.9495 103.543 64.2305C102.987 65.025 102.105 65.5071 101.567 66.362C99.5332 69.5949 97.4182 72.7796 95.9661 76.3356C95.182 78.255 94.3826 80.1267 94.2281 82.2897C94.134 83.616 94.2148 84.9377 94.0993 86.2557C93.9261 88.2298 94.2666 90.1753 94.5806 92.1046C94.7011 92.8452 93.8031 93.4446 93.9965 93.4963C95.0432 93.7743 94.3072 94.3624 94.3287 94.7899C94.3411 95.0425 94.1808 95.3201 94.238 95.552C95.2097 99.4948 94.7897 103.522 94.8726 107.504C94.9496 111.201 95.2727 114.967 94.2732 118.591C93.9083 119.912 93.6424 121.269 93.2576 122.59C92.7958 124.174 91.9437 125.66 91.8017 127.313C91.6016 129.642 90.4249 131.593 89.5774 133.674C89.531 133.789 89.3591 133.852 89.244 133.943C89.3525 132.703 90.3677 131.779 90.4033 130.504C89.5335 132.353 88.4475 134.104 87.9968 136.142C88.4214 135.396 88.8455 134.65 89.2701 133.903Z" fill="#F9896B"/>
<path fill-rule="evenodd" clip-rule="evenodd" d="M51.0576 43.4705C53.4877 42.0444 55.4581 40.0902 57.3025 37.9927C55.2286 39.828 53.1899 41.7027 51.0576 43.4705ZM65.1048 31.2654C65.024 31.1792 64.9432 31.0931 64.8625 31.0069C62.7331 32.9524 60.4264 34.6995 58.5774 36.959L65.1048 31.2654ZM16.1524 134.353C14.9044 135.592 14.3361 139.434 15.155 140.225C15.3886 138.28 15.3948 136.261 16.1524 134.353ZM25.6 56.9585C22.672 58.9429 20.0588 61.2194 18.7938 64.6838C20.8072 61.8825 23.0191 59.2614 25.6 56.9585ZM69.1031 27.736C73.9985 23.9013 79.1321 20.4974 84.8763 18.0818C81.1133 18.58 70.6754 25.4777 69.1031 27.736ZM67.3812 119.197C66.2115 121.533 65.4867 124.036 64.7979 126.532C64.0933 129.085 63.1423 131.55 62.3172 134.056C61.5373 136.425 60.4102 138.681 59.436 140.986C63.6054 134.262 65.1603 126.614 67.3812 119.197ZM25.4968 81.6931C25.5163 81.5494 25.4844 81.3423 25.5664 81.2756C25.7147 81.1547 25.7913 81.339 25.8899 81.4479C26.169 81.7544 26.0386 82.2171 26.4213 82.524C27.1275 83.0894 27.6134 83.801 27.965 84.6998C28.2649 85.4661 29.0834 86.0232 29.6413 86.6983C29.766 86.8487 29.9221 87.103 29.7614 87.3167C29.4628 87.7131 29.7022 87.8432 30.0311 87.9364C30.4374 88.0507 30.6524 88.358 30.7903 88.7122C31.2882 89.9879 31.9509 91.1995 32.0992 92.6048C32.1948 93.5115 32.3411 94.5951 32.677 95.2565C33.6122 97.0997 33.6462 99.0432 33.5576 100.889C33.4772 102.561 33.1558 104.273 33.2328 105.948C33.2991 107.395 32.5714 108.574 32.3688 109.921C32.1236 111.552 30.9928 112.976 30.77 114.671C30.6325 115.713 29.5332 116.504 29.5427 117.329C29.5643 119.235 27.8756 120.261 27.5773 121.98C27.4825 122.527 27.2584 123.346 26.7829 123.866C25.8058 124.934 25.52 126.412 24.5081 127.476C23.234 128.815 22.5725 130.609 21.214 131.938C20.398 132.737 19.7601 133.768 19.046 134.687C18.399 135.519 18.457 136.809 18.2433 137.909C17.9335 139.5 18.8468 140.74 19.2589 142.138C20.2439 145.479 22.2967 148.241 24.6999 150.47C29.3932 154.822 35.0143 156.252 41.2642 153.974C41.8988 153.743 42.5325 153.51 43.1724 153.295C46.9251 152.035 50.167 149.953 53.1783 147.397C57.119 144.052 58.985 139.387 61.1682 134.971C61.932 133.427 62.229 131.534 62.8056 129.819C63.2003 128.645 63.6253 127.473 63.897 126.268C64.1708 125.053 64.544 123.873 64.9076 122.689C65.2705 121.507 65.7816 120.365 66.069 119.167C66.325 118.101 66.849 117.15 67.0698 116.045C67.3647 114.569 67.8464 113.099 68.2473 111.625C69.6888 106.327 70.7669 100.959 71.4164 95.503C71.7763 92.4793 72.0385 89.4271 72.6648 86.4548C74.6877 76.8482 79.1114 68.3604 85.2043 60.7321C87.9277 57.3228 90.8167 54.0448 93.6677 50.739C97.7501 46.006 99.9652 40.3724 101.634 34.4626C102.672 30.7882 102.492 27.1581 101.144 23.6122C100.374 21.5913 99.2288 19.9038 96.8115 19.505C94.5607 19.1334 92.3646 19.6665 90.2365 20.06C88.9711 20.2944 87.5926 20.8963 86.3227 21.5105C83.2762 22.9847 80.1863 24.3768 77.5374 26.5224C76.9066 27.0326 76.1213 27.101 75.4909 27.6109C74.684 28.2632 74.1203 29.1442 73.2401 29.7303C72.7348 30.0663 72.1292 30.099 71.6632 30.5297C68.7083 33.2593 65.3682 35.5553 62.7012 38.6154C61.7754 39.6782 60.6318 40.5484 59.6232 41.5425C55.8362 45.2732 51.4291 48.0645 46.4645 49.8883C40.3782 52.1241 34.6983 55.1213 29.3849 58.7832C27.3532 60.1832 25.177 61.5037 23.7203 63.6323C22.8757 64.867 21.7897 66.1258 21.658 67.5403C21.4625 69.6324 21.2496 71.8173 21.962 73.9016C22.1339 74.4044 21.8274 75.1053 21.9343 75.2771C22.3464 75.937 22.5949 76.6834 23.0414 77.3163C24.0057 78.6844 25.3353 79.8537 25.4968 81.6931ZM24.3412 122.041C24.6617 121.92 24.7413 121.599 24.8519 121.343C25.9048 118.905 27.043 116.497 27.7475 113.926C28.1597 112.421 28.8829 110.987 28.8593 109.374C28.1315 112.227 26.8632 114.888 25.9623 117.677C25.4843 119.157 24.5901 120.488 24.3652 122.063C23.0783 123.76 22.4466 125.799 21.4061 127.625C22.5067 125.827 23.8002 124.128 24.3412 122.041ZM72.1106 115.258C72.0659 114.983 72.1089 114.739 71.8351 114.601C71.7867 115.024 71.4466 115.427 72.0058 115.798C72.3309 116.013 72.0253 116.362 71.942 116.622C71.1927 118.962 70.4641 121.311 69.7405 123.654C69.0521 125.885 68.2299 128.085 67.7138 130.37C67.455 131.517 66.8987 132.548 66.4775 133.63C66.2836 134.127 66.1204 134.602 66.1204 135.142C66.12 136.24 66.0438 136.269 65.0282 135.691C64.9432 135.643 64.8148 135.672 64.6777 135.664C64.6777 135.786 64.6401 135.907 64.6831 135.979C65.3309 137.054 65.1938 138.344 64.433 139.38C63.9309 140.063 63.4741 140.754 63.257 141.652C62.9311 143.004 62.0045 144.068 60.9284 144.957C60.8306 145.037 60.6082 145 60.5979 145.188C60.5374 146.302 59.6406 146.837 58.9643 147.5C58.3185 148.133 57.5224 148.596 56.9156 149.292C55.8772 150.483 54.7092 151.469 53.286 152.262C52.6291 152.628 51.9618 153.324 51.2303 153.61C48.5276 154.67 45.8776 155.855 43.1401 156.843C38.5147 158.512 33.961 158.022 29.3704 156.908C26.6698 156.253 24.2285 155.045 21.9968 153.386C21.1435 152.751 20.4531 151.979 19.7518 151.194C17.0724 148.2 15.194 144.772 14.2504 140.875C13.6461 138.38 14.0272 135.94 15.2772 133.693C15.6061 133.102 15.8592 132.327 16.9688 132.461C17.4522 132.519 17.9318 131.62 18.3067 131.049C20.9572 127.015 23.1122 122.729 24.8477 118.226C26.6748 113.487 28.269 108.698 28.8846 103.611C29.3315 99.9176 28.8324 96.3757 27.9323 92.8119C27.2116 89.9577 25.7221 87.5715 24.0214 85.2478C22.7469 83.5069 21.607 81.6683 20.3487 79.915C19.9026 79.2937 20.4655 78.8973 20.5976 78.0983C19.9088 79.0348 19.7957 78.8467 19.5025 78.0763C19.2092 77.3063 18.6716 76.5873 18.247 75.8409C17.3391 74.2429 16.8201 72.5008 16.8027 70.7056C16.7961 70.0247 16.4403 69.4564 16.5322 68.8119C16.6478 67.9992 16.7046 67.1658 16.9344 66.3842C17.3403 65.0021 17.5951 63.5449 18.9462 62.6063C19.3194 62.347 19.0978 61.5426 19.5219 61.0874C21.337 59.1386 23.046 57.0618 25.3158 55.6167C30.7161 52.178 36.3725 49.2492 42.2976 46.7813C46.4231 45.0628 50.3617 42.892 53.6132 39.6993C58.398 35.0015 63.431 30.5795 68.6089 26.3244C73.5176 22.2909 78.7772 18.8294 84.8088 16.6635C87.3412 15.7544 89.9378 15.2147 92.6214 15.0295C96.452 14.7653 99.3203 16.5086 101.546 19.4043C105.82 24.9658 106.823 31.2248 105.178 37.9555C104.073 42.4824 102.445 46.8232 100.148 50.8865C99.0701 52.7935 98.0429 54.7237 96.2647 56.1746C95.4164 56.8667 94.9621 58.0356 94.3101 58.975C92.0805 62.1867 89.2755 64.9408 87.0562 68.1719C86.0679 69.6105 85.2325 71.1281 84.3009 72.5927C82.268 75.7891 80.8801 79.3168 79.3517 82.7568C78.0105 85.7751 77.5254 89.0734 77.0421 92.3422C76.5218 95.8642 75.9709 99.3828 75.3712 102.892C75.0249 104.919 74.7834 107.012 74.0623 108.911C73.5615 110.231 73.5429 111.636 72.9435 112.915C72.5993 113.649 72.9692 114.654 72.1106 115.258Z" fill="#F9896B"/>
<path fill-rule="evenodd" clip-rule="evenodd" d="M59.633 100.811C59.7457 100.871 59.8587 100.93 59.9714 100.989C60.3334 100.029 61.3623 99.3459 60.8889 98.0342C60.4701 98.9599 60.0518 99.8856 59.633 100.811ZM38.0623 64.6885C35.7133 65.1296 33.3043 67.3414 33.5491 68.84C34.6865 66.9827 36.335 65.7927 38.0623 64.6885ZM57.9659 50.4915C57.8971 50.4 57.828 50.3089 57.7592 50.2182C54.6295 52.9308 51.4994 55.6438 48.3701 58.3568C48.4364 58.4343 48.5031 58.5117 48.5697 58.5896L57.9659 50.4915ZM67.0013 41.86C69.9433 39.6875 72.967 37.641 76.2168 35.9386C79.5019 34.2176 82.825 32.5811 86.1949 31.0547C79.3482 33.851 72.5826 36.7981 67.0013 41.86ZM45.8613 129.71C46.6528 128.42 47.6133 127.282 48.2591 125.871C49.7208 122.679 51.4174 119.593 52.8083 116.362C54.8813 111.547 57.0629 106.783 59.6206 102.201C59.7805 101.914 59.9292 101.626 59.5046 101.209C54.4174 110.532 50.8006 120.44 45.8613 129.71ZM67.2982 46.8335C65.972 47.4271 65.3163 48.7099 64.3644 49.6886C63.1144 50.4151 62.4231 51.7236 61.3105 52.6013C59.3924 54.1144 57.4233 55.579 55.6289 57.2308C51.9156 60.6501 47.8155 63.4426 43.2688 65.6403C41.5809 66.4567 39.6118 66.6311 38.1695 68.0427C37.2873 68.9059 36.2149 69.6038 36.1354 70.9558C36.0173 72.9589 36.3305 74.8944 37.2956 76.695C39.0799 80.0235 41.4836 82.9332 43.5844 86.0476C45.7676 89.2842 47.7185 92.5775 48.2156 96.6081C48.6902 100.463 48.4044 104.285 48.1779 108.113C48.1319 108.888 47.6071 109.628 47.5785 110.526C47.5392 111.78 47.5263 113.174 46.7298 114.202C45.293 116.057 44.8166 118.319 43.876 120.377C43.5678 121.053 43.7567 122.048 43.164 122.564C42.3728 123.254 42.1599 124.162 41.7814 125.029C41.6339 125.367 41.4289 125.707 41.1692 125.965C40.3122 126.817 39.7725 127.942 39.1756 128.914C38.0039 130.823 36.6995 132.513 35.0535 134.011C34.5792 134.443 33.8299 134.39 33.545 135.064C33.26 135.736 32.736 136.233 32.1868 136.697C31.626 137.17 31.3394 137.79 31.1165 138.514C31.5278 138.632 31.7933 138.464 32.0642 138.365C33.7682 137.741 35.2254 136.64 36.871 135.891C39.7576 134.578 42.1927 132.673 44.1208 130.127C45.5634 128.222 46.5426 126.066 47.5752 123.939C49.6214 119.725 51.7007 115.523 53.6197 111.251C54.6945 108.857 55.8124 106.488 57.002 104.154C58.9786 100.277 60.7398 96.3008 62.4562 92.3091C63.831 89.1123 64.9688 85.8165 65.7135 82.3993C66.363 79.4159 67.4954 76.5881 68.6026 73.7554C70.7104 68.3617 72.8547 62.9895 76.3299 58.2725C79.4521 54.0344 82.6146 49.8249 85.4361 45.3722C87.5419 42.0487 89.3698 38.6088 90.2669 34.7447C90.363 34.3301 90.6704 33.7862 90.3179 33.4814C90.0192 33.2229 89.5321 33.5625 89.1548 33.7116C85.1983 35.2773 81.3898 37.1417 77.7046 39.2744C77.039 39.6596 76.4475 40.5306 75.429 40.1048C75.2853 40.0448 74.985 40.2465 75.0724 40.4192C75.381 41.0298 74.782 41.0223 74.5526 41.1739C73.1033 42.1319 71.6726 43.1132 70.2589 44.1243C69.153 44.915 68.3847 46.042 67.2982 46.8335ZM38.0946 124.951C38.4139 124.929 38.5055 124.67 38.6227 124.44C40.1055 121.53 41.2052 118.451 42.5518 115.482C43.1975 114.056 42.9768 112.347 44.0616 111.079C44.2471 110.862 44.1887 110.648 43.9299 110.537C43.5902 110.391 43.4075 110.618 43.3694 110.896C43.222 111.978 42.7051 112.927 42.346 113.935C41.4206 116.531 40.6278 119.164 39.3898 121.653C38.8754 122.688 38.305 123.778 38.1207 124.976C37.2057 126.188 36.5525 127.538 36.0418 128.962C36.6826 127.603 37.9115 126.546 38.0946 124.951ZM78.2825 61.8601C78.6842 62.5402 78.548 62.9673 78.2779 63.6259C77.6197 65.2317 76.2757 66.4934 76.0218 68.2848C75.9315 68.9243 75.4348 69.4073 75.1308 69.9453C74.3567 71.3147 74.208 72.9081 73.5117 74.2423C72.851 75.5081 72.5677 76.8944 71.8942 78.132C71.5364 78.7889 71.6623 79.607 71.1963 80.244C70.8819 80.6731 70.1049 83.3443 70.0146 83.8584C69.788 85.1531 69.5246 86.4417 69.2632 87.7303C69.2185 87.9515 69.1191 88.1789 68.818 88.1313C68.5073 88.0824 68.357 88.2236 68.4762 88.4995C68.9228 89.5333 68.3897 90.4595 67.9925 91.2713C66.8373 93.6306 65.8341 96.0557 64.8197 98.471C64.6188 98.9498 63.6856 98.8197 64.0182 99.7736C64.186 100.255 63.6438 101.09 63.2685 101.713C62.9032 102.321 62.6576 102.999 62.3266 103.63C59.889 108.277 57.649 113.016 55.5267 117.816C54.3495 120.479 52.9445 123.039 51.7044 125.675C51.3913 126.341 51.1862 127.089 50.9758 127.801C50.7824 128.456 50.4987 129.394 49.6993 129.806C49.551 129.882 49.4586 129.949 49.4102 130.101C48.4326 133.18 45.8066 134.79 43.4647 136.593C41.788 137.884 39.7431 138.646 37.8407 139.539C36.6635 140.09 35.5808 140.968 34.2094 141.162C32.8347 141.357 31.469 141.605 30.0752 141.633C28.7233 141.661 27.4732 141.344 26.3536 140.567C25.7671 140.16 25.6781 139.643 25.9341 138.99C26.5682 137.37 27.5246 136.014 28.9975 135.051C29.5616 134.682 30.1647 134.362 30.5404 133.759C30.8084 133.328 31.2623 133.87 31.7602 133.381C33.5218 131.648 34.619 129.541 35.749 127.423C38.0892 123.036 39.8313 118.398 41.5089 113.734C42.2345 111.716 42.6123 109.612 42.9424 107.496C43.1512 106.16 43.2916 104.824 43.381 103.477C43.422 102.852 43.6735 102.339 44.4402 102.719C44.8974 102.946 45.0383 102.613 45.2528 102.378C45.4052 102.211 45.3742 102.019 45.2276 101.879C44.96 101.623 44.7276 101.889 44.5184 101.991C43.6602 102.409 43.3798 102.16 43.4233 101.221C43.5442 98.635 43.6097 96.0479 42.9378 93.5055C42.6036 92.2385 42.1343 91.0228 41.5225 89.8746C39.7344 86.5167 37.4248 83.4901 35.3824 80.2929C33.8884 77.9527 32.3517 75.6128 32.0377 72.7565C31.9644 72.0917 31.4367 71.2815 32.3562 70.7418C32.4072 70.7124 32.4519 70.618 32.4478 70.5575C32.2697 67.9447 32.3504 67.8793 34.1261 66.0481C35.2784 64.8598 36.6838 64.033 38.1157 63.3749C43.3844 60.9522 47.8242 57.4273 52.1704 53.6552C57.461 49.063 62.281 43.9393 67.7775 39.6072C73.7991 34.8621 80.6869 31.6106 87.998 29.3644C91.8571 28.1789 94.7163 31.0589 93.8751 35.0638C93.0351 39.0625 91.5187 42.8052 89.5044 46.3661C87.1919 50.4534 84.5423 54.3258 81.9784 58.2491C81.2751 59.3256 80.6786 60.4933 79.8208 61.4865C79.376 62.0014 79.0458 62.4537 78.2825 61.8601Z" fill="#F9896B"/>
</svg>
