<svg width="21" height="20" viewBox="0 0 21 20" fill="none" xmlns="http://www.w3.org/2000/svg">
<path d="M9.33691 0.690969C9.63626 -0.230342 10.9397 -0.230344 11.239 0.690967L12.9821 6.05571C13.116 6.46773 13.5 6.74669 13.9332 6.74669H19.574C20.5427 6.74669 20.9455 7.98631 20.1618 8.55571L15.5983 11.8713C15.2478 12.126 15.1011 12.5773 15.235 12.9893L16.9781 18.3541C17.2775 19.2754 16.223 20.0415 15.4393 19.4721L10.8757 16.1565C10.5253 15.9019 10.0507 15.9019 9.70018 16.1565L5.13665 19.4721C4.35294 20.0415 3.29846 19.2754 3.59781 18.3541L5.34092 12.9893C5.4748 12.5773 5.32814 12.126 4.97765 11.8713L0.414129 8.55571C-0.369585 7.98631 0.0331893 6.74669 1.00191 6.74669H6.64274C7.07596 6.74669 7.45992 6.46773 7.5938 6.05571L9.33691 0.690969Z" fill="#B1CA16"/>
</svg>
