<svg width="96" height="77" viewBox="0 0 96 77" fill="none" xmlns="http://www.w3.org/2000/svg">
<path fill-rule="evenodd" clip-rule="evenodd" d="M82.5374 60.9974C82.5357 61.9049 82.4019 62.5933 83.251 62.8431C84.1399 63.1044 84.3077 62.4194 84.6034 61.8565C84.7496 61.5785 84.8751 61.1867 85.3084 61.2389C85.757 61.2923 85.9044 61.6282 85.9686 62.0337C86.008 62.2818 85.9744 62.6115 86.2892 62.6977C86.6549 62.7975 86.7999 62.4711 86.9846 62.2408C88.5466 60.2953 89.7838 58.1494 90.7932 55.8787C91.4174 54.4737 91.9741 53.0253 92.1415 51.4766C92.373 49.331 90.7477 48.1394 88.7657 48.9901C87.5944 49.493 86.6525 50.3102 85.9549 51.3536C83.949 54.354 83.01 57.736 82.5374 60.9974ZM79.1384 61.9C79.4565 56.3314 80.9062 51.1034 83.8856 46.3434C84.6746 45.083 85.7905 44.1291 86.9904 43.2787C87.731 42.7535 88.586 43.0269 89.3986 42.9821C89.648 42.9685 90.3757 43.6809 90.2117 42.6102C90.2017 42.5435 90.6234 42.6023 90.8239 42.6939C92.1535 43.3027 93.2482 44.1456 93.9151 45.5104C95.8179 49.4052 95.6141 53.2875 93.9171 57.1694C92.4285 60.5741 90.5315 63.6876 87.6913 66.1766C86.2552 67.4349 84.4601 67.6975 82.7503 68.0674C81.3051 68.3801 79.8492 67.0137 79.4739 65.3867C79.2105 64.2447 79.1674 63.0779 79.1384 61.9Z" fill="black"/>
<path fill-rule="evenodd" clip-rule="evenodd" d="M10.0695 66.9888C10.9161 64.2182 10.825 61.6999 9.53311 59.3004C8.57672 57.5239 7.29643 57.4419 5.99294 59.0096C5.04027 60.1553 4.4782 61.5097 4.03501 62.9172C3.36939 65.0305 4.12654 66.4864 6.19258 67.2452C7.02347 67.5505 7.50353 67.3537 7.66258 66.5162C7.8001 65.7913 8.0714 65.1174 8.86873 65.1514C9.7601 65.1899 9.69258 66.073 9.86489 66.7009C9.874 66.7345 9.90672 66.7622 10.0695 66.9888ZM13.4962 61.2529C13.5604 65.7031 12.3704 69.2814 10.0496 72.4948C9.54098 73.2002 8.96939 73.8575 8.21595 74.3123C7.15808 74.9514 5.99128 74.6043 5.66779 73.4462C5.48637 72.7951 5.16826 72.6571 4.59873 72.5594C2.03483 72.1195 0.0918112 70.2527 0.0114565 67.6991C-0.155467 62.4077 1.49057 57.6278 5.10406 53.748C7.72885 50.9302 10.6067 51.6008 12.2573 55.1223C13.2365 57.212 13.4941 59.447 13.4962 61.2529Z" fill="black"/>
<path fill-rule="evenodd" clip-rule="evenodd" d="M38.9925 52.1949C38.9399 51.2944 38.7349 50.2556 37.7793 49.7988C36.902 49.3792 36.2095 50.1479 35.6503 50.7262C33.3486 53.1049 31.9175 55.9737 31.1177 59.1638C30.9098 59.9918 31.4254 60.3978 32.1503 60.6417C32.8362 60.8728 33.2856 60.749 33.5652 60.0113C33.7441 59.5395 33.9976 58.9683 34.6595 59.062C35.2361 59.1436 35.1189 59.7491 35.2841 60.1322C35.3682 60.3265 35.3003 60.6222 35.5849 60.6691C35.8371 60.7105 36.0152 60.4947 36.1109 60.3095C37.4227 57.7721 38.7121 55.2244 38.9925 52.1949ZM27.3982 60.8202C27.5883 56.7578 29.1254 53.0896 30.7934 49.4637C31.7825 47.3144 33.0354 45.4095 35.222 44.2356C37.146 43.2026 38.9328 43.5509 39.999 45.5035C41.6761 48.576 42.3338 51.8337 41.2975 55.2832C40.3933 58.2936 39.012 61.0514 36.9227 63.433C36.603 63.7971 36.1962 64.1703 35.7973 64.0597C34.93 63.8195 34.5991 64.4354 34.2942 64.9171C33.4687 66.2239 32.2688 66.5366 30.8895 66.3001C29.3656 66.0388 28.1433 65.3011 27.6231 63.7209C27.3112 62.774 27.2582 61.8073 27.3982 60.8202Z" fill="black"/>
<path fill-rule="evenodd" clip-rule="evenodd" d="M12.3603 39.5116C12.6958 39.1781 12.7115 38.8298 12.7757 38.5017C12.8486 38.1302 13.1153 37.9202 13.4177 38.0991C14.1629 38.5411 14.5228 38.008 14.9329 37.5888C16.0396 36.4585 17.0374 35.2122 17.7784 33.8362C18.582 32.3451 19.4327 30.8051 19.2153 28.9751C19.0803 27.8373 18.975 26.5877 17.7138 26.2112C16.4215 25.8255 15.4448 26.6709 14.5978 27.5739C14.5468 27.6281 14.5137 27.6985 14.4656 27.7561C12.6187 29.9866 11.794 32.6909 11.1326 35.4139C10.7759 36.883 11.1703 38.3638 12.3603 39.5116ZM7.47517 38.3365C7.55469 34.8307 8.71736 31.6243 10.0266 28.4201C10.93 26.2087 12.1395 24.2532 13.6836 22.4664C15.0356 20.9028 17.8049 20.2781 19.7061 21.3948C20.4181 21.8132 20.5445 22.7385 21.3219 23.0533C20.4181 24.0354 21.7825 24.4454 21.8637 25.1926C22.1946 28.2242 22.1002 31.1385 20.6774 33.9841C19.2849 36.7704 17.4628 39.1164 14.9834 40.9679C14.7075 41.1742 14.6355 41.402 14.6048 41.7226C14.5621 42.1658 14.5037 42.6288 14.3352 43.0348C13.3664 45.3704 11.7456 45.7511 9.85475 44.074C8.14244 42.5551 7.41304 40.6022 7.47517 38.3365Z" fill="black"/>
<path fill-rule="evenodd" clip-rule="evenodd" d="M72.2313 36.1785C72.1857 35.6028 72.2781 34.9421 71.6911 34.6542C71.1444 34.3863 70.7066 34.8721 70.2986 35.1848C69.7274 35.6231 69.2585 36.1715 68.8779 36.7787C67.3644 39.1939 66.367 41.8046 65.9296 44.6295C65.819 45.346 65.8045 46.2341 66.5095 46.3691C67.2542 46.5116 68.3233 46.6855 68.7789 45.5705C68.9056 45.2599 69.0643 44.9505 69.266 44.6837C71.1684 42.1604 71.6054 39.1384 72.2313 36.1785ZM63.0087 45.1493C63.2559 41.2537 64.4041 37.3341 66.5116 33.6979C66.775 33.2443 67.0943 32.8235 67.3586 32.3703C68.4277 30.5383 70.1151 29.8139 72.1348 29.7642C72.8323 29.7472 73.2212 30.2997 73.536 30.8813C74.6751 32.9858 74.9654 35.2325 74.5003 37.5412C73.5782 42.1157 71.863 46.3795 69.2764 50.2812C68.8141 50.9792 68.2201 51.5516 67.6117 52.0996C66.9241 52.7184 66.3388 52.4844 66.1061 51.5748C66.0265 51.2629 66.0493 50.9009 65.6144 50.7816C63.8797 50.3053 63.6482 48.7346 63.2178 47.3553C63.0327 46.7605 63.0886 46.0908 63.0087 45.1493Z" fill="black"/>
<path fill-rule="evenodd" clip-rule="evenodd" d="M55.7086 18.0278C54.7849 18.8488 54.4693 19.8416 53.9755 20.7504C53.0684 22.4221 52.658 24.1973 52.4082 26.0397C52.3668 26.3462 52.3838 26.6743 52.747 26.7824C53.102 26.888 53.2867 26.5927 53.445 26.3566C53.5883 26.142 53.599 25.751 53.7784 25.664C54.3844 25.3691 53.9735 23.8805 55.2695 24.4119C55.4352 24.4794 55.5893 24.1804 55.3921 24.0341C54.5314 23.3975 55.0802 22.7 55.3151 22.0568C55.7753 20.7947 56.1058 19.5363 55.7086 18.0278ZM56.6041 12.9712C55.3681 13.5491 55.8751 14.1484 56.5908 14.421C58.2265 15.0447 58.3288 16.5504 58.6287 17.8563C58.8205 18.6914 58.6589 19.6685 58.4398 20.5267C57.4486 24.4111 55.6634 27.9512 53.5158 31.3112C53.1625 31.8646 52.5403 32.2254 52.1862 32.8177C52.0329 33.0733 51.7364 33.2385 51.4034 33.1259C51.0745 33.0144 50.9784 32.7821 51.0148 32.4209C51.0824 31.7474 50.7891 31.2392 50.2937 30.7517C48.9293 29.4105 49.0569 27.6083 49.2011 25.9631C49.5684 21.7618 50.985 17.8679 53.2784 14.3286C53.9768 13.2504 54.951 12.4228 56.6041 12.9712Z" fill="black"/>
<path fill-rule="evenodd" clip-rule="evenodd" d="M59.1621 68.2279C59.2503 68.5344 59.3385 68.8413 59.4669 69.2887C60.4494 68.0448 61.1109 66.7554 61.5119 65.3517C61.7774 64.4218 61.0525 63.6174 60.0808 63.6688C59.1016 63.7202 58.3772 64.2636 57.8524 65.0357C56.4681 67.0727 55.8514 69.4208 55.496 71.7942C55.3904 72.5016 55.4749 73.4589 55.9147 74.2396C56.295 74.9135 55.5258 76.6122 54.7318 76.8677C53.7377 77.1879 53.2659 76.4693 52.9275 75.7444C52.2603 74.3167 52.4934 72.7671 52.6301 71.2976C52.94 67.9744 53.9398 64.8331 55.655 61.947C56.4184 60.6621 57.2945 59.4812 58.9206 59.2476C61.6912 58.8504 62.8274 59.1416 63.5472 61.925C64.4962 65.5928 62.4844 70.6812 59.3572 72.8811C59.0109 73.125 58.6609 73.3309 58.2107 73.1565C57.6971 72.9581 57.7716 72.4863 57.7542 72.1003C57.6896 70.663 58.3333 69.4378 58.8779 68.1869C58.9728 68.2006 59.0672 68.2142 59.1621 68.2279Z" fill="black"/>
<path fill-rule="evenodd" clip-rule="evenodd" d="M39.996 0.0103931C40.8828 -0.0662346 41.5314 0.281696 41.5708 1.12832C41.6395 2.624 41.9725 4.0182 41.5368 5.65554C40.8037 8.41039 39.6775 10.889 38.1288 13.1932C37.4449 14.21 37.7237 15.3404 37.2921 16.3568C36.9325 17.2035 36.5092 17.976 35.8436 18.6089C35.4124 19.0189 34.9535 19.3263 34.3388 18.9729C33.7618 18.6416 33.5208 18.2771 33.4847 17.4789C33.2594 12.4853 35.1498 8.03347 36.8335 3.51868C37.2063 2.52045 37.8011 1.66099 38.4212 0.806074C38.8375 0.232821 39.3407 -0.0587788 39.996 0.0103931Z" fill="black"/>
</svg>
