<svg width="154" height="319" viewBox="0 0 154 319" fill="none" xmlns="http://www.w3.org/2000/svg">
<path fill-rule="evenodd" clip-rule="evenodd" d="M76.2937 78.2077C76.2492 78.3254 76.2048 78.4431 76.1603 78.5609C76.6669 78.7705 77.1735 78.9801 77.6801 79.1898C77.7331 79.0505 77.7857 78.9108 77.839 78.7718C77.3236 78.5834 76.8088 78.3957 76.2937 78.2077ZM179.589 146.704C179.677 146.603 179.766 146.501 179.855 146.399C179.412 145.955 178.972 145.506 178.515 145.076C178.478 145.04 178.285 145.099 178.231 145.167C178.162 145.253 178.099 145.464 178.14 145.499C178.611 145.914 179.102 146.306 179.589 146.704ZM185.684 130.205C185.618 130.281 185.553 130.359 185.487 130.435C186.152 131.004 186.819 131.573 187.484 132.142C187.565 132.048 187.644 131.953 187.725 131.858L185.684 130.205ZM174.79 246.31L174.836 246.243C174.276 245.563 173.718 244.882 173.156 244.204C173.066 244.096 172.966 243.99 172.85 243.915C172.813 243.891 172.709 243.97 172.636 244.002C172.712 244.129 172.767 244.278 172.868 244.381C173.502 245.03 174.148 245.668 174.79 246.31ZM146.605 138.043C146.55 138.113 146.494 138.183 146.438 138.253C147.26 138.918 148.081 139.583 148.903 140.248C148.961 140.175 149.019 140.102 149.077 140.03C148.253 139.367 147.429 138.706 146.605 138.043ZM109.997 60.7611C110.046 60.6326 110.094 60.5044 110.143 60.3755C109.265 60.11 108.388 59.8437 107.51 59.5779C107.466 59.727 107.422 59.8761 107.379 60.0253C108.252 60.2709 109.125 60.5162 109.997 60.7611ZM200.814 102.146C200.759 102.285 200.702 102.425 200.647 102.564C201.181 102.913 201.704 103.281 202.258 103.596C202.373 103.66 202.622 103.555 202.766 103.461C202.811 103.431 202.763 103.097 202.679 103.052C202.069 102.729 201.438 102.443 200.814 102.146ZM158.501 203.627C158.577 203.528 158.653 203.429 158.728 203.33C157.538 202.365 156.349 201.4 155.159 200.434C155.091 200.516 155.023 200.598 154.955 200.68C156.137 201.662 157.319 202.644 158.501 203.627ZM181.156 218.391C181.058 218.487 180.959 218.583 180.861 218.679L183.238 221.352C183.346 221.25 183.453 221.147 183.561 221.046C182.759 220.161 181.957 219.276 181.156 218.391ZM187.874 183.61C187.942 183.508 188.01 183.407 188.078 183.306C187.088 182.493 186.099 181.68 185.109 180.868C185.015 180.993 184.92 181.118 184.826 181.243C185.842 182.032 186.858 182.821 187.874 183.61ZM210.485 110.319L210.717 110.095C209.989 109.478 209.273 108.845 208.52 108.26C208.411 108.175 208.126 108.316 207.922 108.352C208.001 108.511 208.038 108.729 208.165 108.816C208.927 109.333 209.71 109.821 210.485 110.319ZM180.965 119.422C181.008 119.353 181.05 119.285 181.093 119.218C179.753 118.33 178.412 117.443 177.071 116.555C176.998 116.672 176.924 116.788 176.851 116.905C178.222 117.743 179.593 118.582 180.965 119.422ZM119.826 71.143C119.855 71.0292 119.883 70.9154 119.911 70.8019L113.776 67.9265C113.724 68.037 113.673 68.1469 113.622 68.2565C115.69 69.2183 117.759 70.1805 119.826 71.143ZM92.1534 152.496C92.4981 151.687 92.0994 150.506 91.499 150.284C91.3184 150.217 91.1915 150.014 91.0287 149.886C90.8115 149.715 90.5835 149.557 90.3598 149.394C90.3576 149.679 90.2398 150.045 90.3733 150.235C90.9027 150.992 91.5107 151.694 92.1534 152.496ZM170.293 163.117C170.222 163.177 170.151 163.236 170.081 163.297L174.267 167.483C174.33 167.415 174.392 167.347 174.455 167.279L170.293 163.117ZM159.14 213.178C159.108 213.209 159.076 213.24 159.045 213.271L167.149 221.375C167.181 221.344 167.213 221.313 167.244 221.282L159.14 213.178ZM212.157 111.217L211.786 111.61C212.785 112.748 213.774 113.895 214.798 115.011C214.908 115.131 215.217 115.071 215.434 115.094C215.45 114.88 215.564 114.569 215.464 114.467C214.381 113.365 213.265 112.296 212.157 111.217ZM159.225 270.555C159.18 270.591 159.135 270.628 159.09 270.664C161.978 272.868 164.86 275.081 167.766 277.26C168.08 277.496 168.541 277.534 168.933 277.665C168.64 277.496 168.346 277.328 168.054 277.159C168.018 277.138 167.992 277.102 167.958 277.077C165.047 274.902 162.136 272.728 159.225 270.555ZM94.4365 74.6199C93.3867 73.281 88.7952 71.489 87.872 71.9904C90.0269 72.8535 92.0837 73.678 94.4365 74.6199ZM94.1765 69.3541C93.3968 68.8582 92.2198 70.2884 91.8293 68.6565C91.6785 68.7143 91.5294 68.7752 91.3767 68.8278C91.3011 68.8537 91.2148 68.8883 91.1418 68.8749C90.9947 68.8475 90.7458 68.7255 90.7281 68.7542C90.632 68.9171 90.4864 69.1797 90.5528 69.286C90.7863 69.6582 91.0319 70.1059 91.394 70.2986C92.6571 70.9703 93.0698 70.7964 94.1765 69.3541ZM212.877 227.021C213.002 226.857 213.128 226.692 213.253 226.529C210.862 224.597 208.471 222.665 206.08 220.734C206.02 220.804 205.96 220.874 205.901 220.943C208.226 222.97 210.551 224.995 212.877 227.021ZM175.919 162.438C176.03 162.335 176.14 162.232 176.251 162.128C173.096 158.76 169.941 155.392 166.785 152.024C169.855 155.472 172.537 159.281 175.919 162.438ZM178.001 137.794C177.918 137.873 177.836 137.951 177.754 138.03C177.965 138.28 178.169 138.536 178.389 138.779C179.909 140.445 181.415 142.123 182.966 143.758C183.246 144.052 183.923 144.425 184.062 144.314C184.642 143.854 184.457 143.316 183.916 142.856C181.939 141.176 179.972 139.483 178.001 137.794ZM86.985 47.5944C87.0187 47.7556 87.0524 47.9162 87.0861 48.0774L101.209 44.7772C100.066 44.7618 98.9237 44.8962 97.7783 44.9943C97.4647 45.0215 96.77 45.4754 97.0925 44.5243C96.9591 44.4923 96.8109 44.4082 96.6958 44.4409C96.5434 44.4841 96.2926 44.6957 96.2968 44.7026C96.7753 45.4715 96.0522 45.2972 95.7477 45.3753C92.8288 46.1246 89.9062 46.8572 86.985 47.5944ZM188.99 232.469C189.057 232.401 189.123 232.333 189.19 232.265L174.888 218.757C174.751 218.906 174.615 219.055 174.478 219.204C179.315 223.625 184.153 228.048 188.99 232.469ZM242.362 179.65C242.44 179.598 242.517 179.546 242.594 179.493C242.516 178.287 242.166 177.02 242.421 175.888C242.836 174.039 242.634 172.258 242.454 170.446C242.44 170.316 242.274 170.201 242.179 170.079C242.057 170.211 241.847 170.33 241.826 170.478C241.425 173.284 240.581 176.1 241.923 178.885C242.05 179.149 242.215 179.395 242.362 179.65ZM213.516 234.219C208.15 229.998 203.089 226.017 198.029 222.037C202.598 226.66 207.455 230.914 213.516 234.219ZM184.255 201.271C184.483 201.427 184.641 201.566 184.823 201.653C185.11 201.787 185.413 201.886 185.709 202C185.624 201.667 185.64 201.248 185.439 201.013C182.975 198.124 180.483 195.259 177.979 192.405C177.85 192.258 177.483 192.15 177.341 192.229C177.19 192.312 177.043 192.735 177.123 192.848C177.652 193.593 178.21 194.324 178.823 195.003C179.502 195.754 180.3 196.4 180.955 197.17C182.107 198.525 183.19 199.94 184.255 201.271ZM203.326 219.727C203.093 219.393 202.907 219.013 202.621 218.731C199.215 215.368 195.802 212.013 192.365 208.681C192.131 208.453 191.707 208.42 191.371 208.297C191.494 208.617 191.541 209.004 191.753 209.246C195.191 213.169 199.086 216.601 203.326 219.727ZM161.922 129.07C161.78 129.243 161.638 129.416 161.496 129.589C162.958 130.839 164.427 132.081 165.879 133.343C166.539 133.916 167.196 134.499 167.795 135.133C168.601 135.984 169.279 136.965 170.137 137.755C171.64 139.141 173.278 140.38 174.779 141.769C175.501 142.437 176.016 143.326 176.677 144.069C176.835 144.246 177.202 144.238 177.473 144.314C177.493 144.136 177.596 143.901 177.519 143.789C177.063 143.127 176.623 142.438 176.07 141.862C175.176 140.929 174.185 140.091 173.26 139.186C172.14 138.091 171.072 136.942 169.936 135.866C168.721 134.716 167.478 133.593 166.201 132.514C164.803 131.333 163.351 130.215 161.922 129.07ZM167.533 119.114C167.86 119.552 168.105 120.127 168.54 120.424C172.674 123.245 176.863 125.987 180.989 128.821C182.92 130.148 184.742 131.633 186.628 133.027C186.779 133.138 187.042 133.098 187.253 133.129C187.224 132.932 187.252 132.696 187.152 132.547C186.992 132.307 186.767 132.099 186.534 131.924C183.821 129.889 181.113 127.846 178.379 125.839C176.875 124.736 175.37 123.624 173.783 122.65C171.771 121.415 169.676 120.317 167.533 119.114ZM130.434 59.1514C136.501 63.5878 142.569 68.0243 148.636 72.461C143.609 66.5885 137.268 62.5295 130.434 59.1514ZM167.044 125.14L166.776 125.504C167.029 125.735 167.256 126.007 167.54 126.19C168.84 127.029 170.212 127.767 171.457 128.678C176.156 132.117 180.813 135.612 185.497 139.071C185.65 139.185 185.921 139.14 186.137 139.17C186.093 138.948 186.126 138.64 185.992 138.52C184.504 137.189 183.084 135.757 181.465 134.605C177.967 132.115 174.374 129.756 170.795 127.381C169.583 126.577 168.297 125.884 167.044 125.14ZM214.582 241.34C205.735 235.547 197.745 228.664 189.765 221.77C197.183 229.377 205.126 236.319 214.582 241.34ZM167.803 128.326C168.197 128.829 168.321 129.118 168.54 129.247C170.55 130.436 171.673 132.633 174.026 133.571C175.785 134.272 177.176 135.923 178.687 137.201C179.006 137.471 179.136 137.965 179.353 138.356C180.797 137.457 180.359 140.063 181.731 139.65C182.016 139.564 182.618 140.789 183.185 141.281C183.503 141.556 184.05 141.567 184.494 141.698C184.472 141.334 184.59 140.854 184.402 140.627C183.853 139.965 183.214 139.366 182.555 138.808C178.032 134.977 173.209 131.567 167.803 128.326ZM192.44 236.969C192.512 236.889 192.584 236.809 192.656 236.73C191.793 235.974 190.904 235.247 190.071 234.46C184.788 229.467 179.531 224.444 174.219 219.482C173.624 218.926 172.734 218.688 171.98 218.303C171.901 218.445 171.821 218.588 171.742 218.731C178.138 225.382 185.125 231.362 192.44 236.969ZM230.579 119.349C214.95 105.057 198.565 91.7499 180.152 81.0906C198.332 92.0534 214.583 105.535 230.579 119.349ZM231.577 131.512C231.654 131.435 231.731 131.359 231.808 131.282C231.195 130.195 230.586 129.105 229.961 128.025C229.909 127.937 229.716 127.941 229.635 127.857C228.548 126.714 227.468 125.565 226.39 124.414C226.034 124.034 225.685 123.647 225.34 123.257C224.709 122.546 224.134 121.776 223.444 121.129C222.551 120.29 221.574 119.538 220.621 118.763C219.794 118.09 218.965 117.417 218.108 116.783C217.687 116.472 217.209 116.231 216.738 115.996C216.588 115.921 216.287 115.891 216.216 115.975C216.117 116.094 216.091 116.384 216.17 116.52C216.315 116.766 216.554 116.96 216.765 117.162C218.044 118.387 219.343 119.591 220.602 120.834C221.414 121.635 222.147 122.515 222.958 123.316C224.135 124.479 225.349 125.604 226.549 126.743C228.224 128.333 229.9 129.922 231.577 131.512ZM164.172 232.763C164.127 232.802 164.081 232.841 164.035 232.881C164.573 233.674 165.033 234.535 165.663 235.247C168.733 238.716 172.267 241.697 175.747 244.736C177.071 245.893 178.213 247.256 179.497 248.463C180.274 249.193 181.119 250.246 182.015 250.336C182.84 250.418 183.288 250.75 183.768 251.17C184.219 251.566 184.464 252.208 184.932 252.568C185.489 252.998 186.186 253.246 186.825 253.569C186.989 253.653 187.157 253.727 187.324 253.804C187.319 253.572 187.409 253.247 187.29 253.123C186.8 252.616 186.254 252.16 185.713 251.703C182.096 248.645 178.424 245.648 174.867 242.52C171.244 239.334 167.733 236.021 164.172 232.763ZM181.439 217.218C184.071 221.758 202.414 238.293 209.024 240.368C208.673 240.089 208.452 239.907 208.225 239.731C203.716 236.241 199.104 232.874 194.727 229.225C190.674 225.847 186.586 222.471 183.237 218.329C182.882 217.89 182.228 217.693 181.439 217.218ZM157.413 213.13C166.122 223.528 177.061 234.208 188.694 243.052C178.201 233.015 167.154 222.448 157.413 213.13ZM187.384 249.8C182.28 245.274 177.144 240.931 172.256 236.325C167.33 231.683 162.65 226.781 157.861 221.993C157.775 222.079 157.69 222.166 157.604 222.253C158.921 226.01 182.428 247.781 187.384 249.8ZM242.334 164.298C242.413 164.98 242.491 165.661 242.598 166.6C243.025 165.688 243.308 165.083 243.555 164.554C243.141 164.469 242.717 164.382 242.292 164.295C243.467 163.76 243.774 163.128 242.889 161.739C242.687 162.642 242.501 163.468 242.334 164.298ZM85.3023 149.635C85.0862 149.368 84.87 149.103 84.6551 148.836C84.4497 148.581 84.2653 148.305 84.0344 148.074C83.8492 147.889 83.4829 147.582 83.4133 147.632C82.7402 148.113 82.2879 148.365 81.8418 147.295C81.6466 146.827 80.8685 146.55 80.3037 146.302C79.5453 145.967 79.7271 145.699 80.2209 145.282C80.3743 145.152 80.3606 144.824 80.4231 144.587C80.2556 144.617 80.0666 144.713 79.925 144.665C79.3062 144.458 78.535 144.37 78.1206 143.945C76.5573 142.342 75.2115 140.519 73.5978 138.973C71.1764 136.654 68.504 134.595 66.1061 132.253C61.3082 127.568 55.5492 123.879 51.5781 118.344C49.9668 116.099 48.2262 113.887 47.0197 111.427C45.8548 109.05 45.2281 106.395 44.4995 103.825C43.324 99.6815 42.3537 95.489 42.4459 91.1386C42.5689 85.3485 43.1144 79.6388 45.6297 74.2932C46.6456 72.1353 47.454 69.8741 48.568 67.7718C49.3414 66.3115 50.2559 64.7763 51.4983 63.7471C53.6209 61.9882 55.0468 59.7407 56.6118 57.5819C61.7468 50.4989 68.4671 45.4571 76.418 41.9455C81.1844 39.84 86.0804 38.1315 91.1412 36.89C97.9206 35.2269 104.787 34.6696 111.729 35.4088C115.367 35.796 118.983 36.2944 122.42 37.7573C126.135 39.3386 130.032 40.5098 133.689 42.2075C139.7 44.9976 145.568 48.1275 150.34 52.8475C153.803 56.273 157.029 59.9356 160.406 63.4495C162.351 65.4736 164.405 67.3921 166.376 69.3907C170.528 73.5995 175.703 76.3775 180.676 79.3703C191.271 85.7465 201.448 92.6816 210.959 100.586C216.708 105.363 222.645 109.931 228.185 114.937C235.66 121.694 241.678 129.588 244.785 139.35C246.428 144.511 246.897 149.861 246.895 155.269C246.893 160.159 247.227 165.057 247.033 169.936C246.887 173.615 247.571 177.15 248.089 180.719C248.453 183.222 249.089 185.689 249.688 188.151C251.217 194.447 254.518 199.979 257.289 205.745C259.389 210.116 261.249 214.603 263.182 219.052C263.295 219.311 263.102 219.7 263.066 220.03C263.056 220.116 263.069 220.239 263.123 220.292C263.95 221.111 264.138 222.088 264.131 223.239C264.126 224.001 264.743 224.751 264.824 225.533C265.192 229.107 265.744 232.695 265.697 236.271C265.656 239.378 265.105 242.524 264.4 245.564C263.683 248.656 262.675 251.711 261.475 254.65C260.256 257.632 258.737 260.503 257.187 263.333C254.114 268.946 250.045 273.811 245.13 277.862C240.113 281.996 234.419 285.08 228.313 287.334C225.9 288.226 223.419 288.955 220.932 289.623C219.621 289.975 218.224 290.001 216.877 290.239C215.948 290.403 215.049 290.735 214.119 290.894C208.824 291.801 203.543 291.473 198.267 290.684C197.323 290.543 196.365 290.494 195.415 290.386C195.125 290.353 194.832 290.288 194.556 290.192C192.098 289.338 189.65 288.458 187.184 287.629C186.81 287.503 186.294 287.737 185.959 287.572C184.885 287.04 183.889 286.328 182.598 286.475C182.701 285.521 181.749 285.987 181.734 285.958C180.981 284.559 179.459 285.358 178.452 284.773C178.054 284.542 177.526 284.453 177.241 284.135C176.926 283.784 175.713 284.11 176.327 283.023C175.874 282.915 175.42 282.813 174.97 282.697C174.438 282.56 173.91 282.409 173.448 282.017C173.703 282.056 173.957 282.095 174.211 282.134C166.807 277.624 159.537 272.976 153.94 266.173C153.831 266.295 153.721 266.417 153.613 266.539C156.997 269.736 160.381 272.934 163.766 276.131C163.761 276.148 163.756 276.164 163.751 276.18C162.27 274.98 160.741 273.834 159.316 272.57C152.971 266.939 148.229 260.088 144.583 252.501C141.986 247.097 139.75 241.52 137.33 236.03C136.084 233.203 134.75 230.415 133.531 227.577C132.995 226.33 132.735 224.965 132.197 223.72C131.469 222.036 130.578 220.422 129.787 218.765C129.125 217.375 128.258 216.012 127.982 214.543C127.864 213.912 127.579 213.681 127.333 213.261C127.186 213.011 127.357 212.585 127.34 212.241C127.332 212.076 127.207 211.77 127.155 211.774C126.23 211.848 126.2 211.104 125.901 210.531C124.565 207.977 123.211 205.431 121.795 202.921C120.026 199.786 118.282 196.632 116.359 193.593C114.199 190.179 111.907 186.844 109.568 183.548C107.283 180.331 104.887 177.19 102.5 174.046C100.544 171.469 98.5018 168.956 96.5526 166.375C95.7647 165.332 95.1583 164.153 94.3947 163.09C94.0778 162.647 93.3972 162.425 93.1751 161.962C92.6047 160.775 91.3367 160.074 91.0731 158.637C90.9806 158.135 90.0403 157.84 89.6551 157.325C89.2498 156.783 89.0464 156.089 88.7488 155.465C88.7043 155.372 88.6405 155.241 88.5601 155.218C87.4118 154.899 87.1063 154.158 87.5312 153.43C87.0275 152.99 86.5791 152.634 86.1749 152.233C85.8008 151.862 85.5319 151.361 85.1133 151.064C84.1854 150.405 84.7205 150.04 85.3184 149.643C85.2739 149.976 85.0685 150.502 85.1977 150.603C85.6618 150.97 86.2344 151.201 86.7777 151.46C86.8431 151.491 87.0602 151.384 87.0655 151.328C87.0792 151.18 87.0678 150.959 86.9732 150.884C86.4313 150.448 85.8622 150.047 85.3023 149.635Z" fill="#3734A9"/>
</svg>
