<svg width="189" height="118" viewBox="0 0 189 118" fill="none" xmlns="http://www.w3.org/2000/svg">
<path fill-rule="evenodd" clip-rule="evenodd" d="M37.8667 39.297L53.3996 35.1346C47.4623 34.5702 42.3988 36.0192 37.8667 39.297ZM146.354 74.911C139.3 74.3827 132.244 73.8538 125.189 73.3248C132.137 75.5815 139.195 76.0922 146.354 74.911ZM184.154 57.3037C186.497 61.0603 187.439 64.5648 183.703 67.7389C182.072 69.1242 178.392 69.4083 176.361 68.2787C177.278 70.179 177.132 71.3963 174.924 72.2965C173.103 73.0379 171.717 74.7997 169.921 75.6537C162.677 79.1009 155.274 82.2484 147.051 82.0602C144.942 82.0112 142.818 80.014 140.881 82.4638C135.185 82.5613 129.481 82.6827 123.929 81.106C122.602 80.7286 121.352 80.0748 120.075 79.5299C114.675 77.2249 109.272 74.9269 103.896 72.5691C103.535 72.4103 103.429 71.7367 103.122 71.3717C102.855 71.0529 102.471 70.8306 102.14 70.5642C100.55 72.6477 99.3024 70.4902 98.5095 69.8879C96.1221 68.0719 94.0746 65.8087 91.8987 63.7156C91.6453 63.4729 91.4549 63.0404 91.1687 62.9732C88.0361 62.2317 85.7241 60.674 84.331 57.5574C83.8388 56.4584 82.0782 55.9269 81.2455 54.6851C80.5757 54.6544 79.7574 54.8654 79.2596 54.5567C74.0603 51.3377 68.9122 48.0356 63.6723 44.7074C61.3877 45.5546 55.7367 43.8491 54.3215 41.5852C54.1153 42.2295 53.9654 42.6941 53.9611 42.7088C52.4978 42.7302 51.1244 42.4771 49.9143 42.8137C43.7423 44.5265 37.6809 46.335 32.3804 50.3424C26.949 54.448 20.9322 57.7715 15.3665 61.7123C13.3946 63.1083 11.9204 65.2529 10.3644 67.173C9.44708 68.305 8.76199 68.7619 7.53513 67.5833C4.26214 64.4403 3.6528 61.6561 6.83716 58.2478C11.1398 53.6423 15.6588 48.9943 20.8614 45.5339C27.2829 41.2633 34.3713 37.9053 41.4138 34.6848C48.9745 31.2272 56.54 33.046 63.84 36.0604C71.826 39.3557 78.9441 44.0059 85.3735 49.8106C93.1525 56.8346 102.15 61.947 111.727 66.1577C121.761 70.5682 132.188 72.9165 143.129 72.4983C151.489 72.1799 159.637 70.74 167.062 66.4749C172.452 63.3783 177.924 60.4244 183.368 57.4222C183.583 57.3034 183.885 57.3405 184.154 57.3037Z" fill="#F9896B"/>
<path fill-rule="evenodd" clip-rule="evenodd" d="M143.707 49.8328C140.625 46.6449 140.438 45.6152 142.484 42.0004C144.669 38.1393 147.04 34.3847 149.317 30.5756C149.688 29.9545 149.917 29.2367 150.344 28.6636C151.094 27.6562 151.945 26.7262 152.754 25.7629C153.353 27.1079 154.391 28.4396 154.436 29.8033C154.491 31.439 154.044 33.3082 153.21 34.7202C150.238 39.7499 147.009 44.6277 143.707 49.8328Z" fill="#F9896B"/>
<path fill-rule="evenodd" clip-rule="evenodd" d="M109.34 28.3007C109.306 24.9089 109.171 21.3961 109.314 17.8939C109.345 17.1444 110.383 16.4346 110.956 15.7065C111.641 16.2817 112.47 16.7541 112.971 17.4606C113.475 18.1672 113.816 19.0832 113.944 19.9497C114.523 23.8931 115.014 27.8509 115.505 31.8077C115.594 32.523 115.634 33.2752 115.504 33.9738C115.414 34.4522 115.03 35.1961 114.707 35.235C114.191 35.2988 113.369 35.0334 113.105 34.6288C111.83 32.6712 110.699 30.6191 109.34 28.3007Z" fill="#F9896B"/>
<path fill-rule="evenodd" clip-rule="evenodd" d="M38.1742 82.6192C35.5092 81.3549 34.9604 79.8093 35.8393 77.8501C37.0202 75.2177 38.1952 72.5632 39.6558 70.0857C40.1244 69.2924 41.4895 69.0281 42.444 68.5218C42.975 69.947 44.3316 71.7451 43.886 72.7289C42.3427 76.1417 40.1727 79.2709 38.1742 82.6192Z" fill="#F9896B"/>
<path fill-rule="evenodd" clip-rule="evenodd" d="M56.8641 89.8803C53.0559 85.1031 56.008 80.2983 56.389 75.5965C56.4247 75.1656 57.7056 74.3668 57.9024 74.4984C58.8783 75.15 60.5183 76.1859 60.4147 76.8503C59.755 81.0688 58.7033 85.2267 57.746 89.3965C57.7082 89.5609 57.313 89.643 56.8641 89.8803Z" fill="#F9896B"/>
<path fill-rule="evenodd" clip-rule="evenodd" d="M132.434 35.8803C131.913 34.6119 130.906 33.3185 130.965 32.078C131.129 28.6724 131.668 25.2763 132.234 21.906C132.354 21.1884 133.216 20.5951 133.737 19.945C134.359 20.6181 135.491 21.2775 135.51 21.9671C135.586 24.7316 135.468 27.5253 135.122 30.2705C134.884 32.1573 134.151 33.9812 133.639 35.8338C133.238 35.8493 132.836 35.8648 132.434 35.8803Z" fill="#F9896B"/>
<path fill-rule="evenodd" clip-rule="evenodd" d="M82.5302 81.9547C81.4881 81.794 80.9756 81.8671 80.6856 81.6467C77.6583 79.3354 74.5786 77.0797 71.7235 74.5691C70.9135 73.8565 70.7872 72.3653 70.7589 71.0385C75.3032 73.9267 80.0789 76.3337 82.5302 81.9547Z" fill="#F9896B"/>
</svg>
