<svg width="20" height="20" viewBox="0 0 20 20" fill="none" xmlns="http://www.w3.org/2000/svg">
<g clip-path="url(#clip0_1_1484)">
<path d="M8.4306 14.0991C8.48394 14.0541 8.5381 14.0075 8.5881 13.9583C5.80394 16.69 1.26394 15.415 0.199769 11.5625V11.5566C-1.22773 6.31496 4.79144 2.33329 8.58644 5.99996C8.6656 6.08412 13.9081 11.675 13.5748 11.3191H13.5898C14.3723 12.1258 15.5039 12.0375 16.1773 11.3325C16.9014 10.5758 16.9273 9.34079 16.2164 8.57162C15.0939 7.27912 12.8898 8.24496 13.1006 10.1608L11.8389 8.87579L10.3756 7.47662C10.6773 6.87746 11.0731 6.35329 11.5689 5.89996C11.5156 5.94579 11.4614 5.99329 11.4114 6.04079C14.2064 3.29912 18.7431 4.60412 19.7998 8.43996V8.44496C21.2306 13.6858 15.2048 17.6675 11.4131 14.0008C11.3356 13.9175 6.09644 8.29162 6.4281 8.64829L6.42477 8.63579C6.41144 8.63579 6.41144 8.62329 6.41144 8.62329C5.58977 7.77579 4.4756 7.90329 3.82394 8.59746C3.09894 9.35412 3.07394 10.5891 3.78644 11.3466C4.85977 12.6091 7.11144 11.6733 6.89977 9.71912C6.98144 9.80329 9.80727 12.7041 9.62727 12.52C9.16977 13.4325 8.6581 13.8516 8.4306 14.0991Z" fill="#3734A9"/>
</g>
<defs>
<clipPath id="clip0_1_1484">
<rect width="20" height="20" fill="white"/>
</clipPath>
</defs>
</svg>
